<svg width="112" height="112" viewBox="0 0 112 112" fill="none" xmlns="http://www.w3.org/2000/svg">
<g clip-path="url(#clip0_479_17404)">
<path d="M111.675 13.7234C78.2468 1.84078 41.913 0.859277 7.89251 10.9199C6.54024 11.2435 5.26703 11.8363 4.14892 12.6628C3.0308 13.4894 2.09071 14.5328 1.38476 15.7307C0.678817 16.9286 0.221496 18.2565 0.0401046 19.6351C-0.141287 21.0137 -0.0430292 22.4146 0.329011 23.7544C2.19101 31.2269 4.90701 39.8124 8.16901 47.5964C8.22501 47.7784 8.31251 47.6909 8.31251 47.5089C7.84001 43.8584 10.647 39.2489 16.1525 37.5724C42.6103 29.1495 71.085 29.5265 97.3105 38.6469C98.2779 38.9768 99.3015 39.1098 100.321 39.0383C101.341 38.9667 102.336 38.692 103.247 38.2302C104.159 37.7684 104.969 37.1289 105.631 36.3494C106.292 35.5698 106.79 34.6659 107.097 33.6909C110.359 23.1909 111.675 16.0614 112 14.2764C112.056 13.9439 111.762 13.8144 111.675 13.7234ZM31.024 36.8234C27.0165 37.6599 21.476 38.9759 17.318 40.3549C9.00551 43.2214 9.39051 53.3364 13.818 56.5634C14.1435 54.6874 16.1525 52.1359 18.3925 51.2749C26.691 48.0129 35.602 46.0634 44.611 45.2584C40.033 43.3999 35.567 40.7364 31.0835 36.8199L31.024 36.8234ZM97.1985 57.0744C85.2565 51.4621 72.3103 48.3012 59.1256 47.7788C45.9408 47.2564 32.7852 49.383 20.4365 54.0329C16.478 55.5274 14 60.3434 16.478 64.9144C20.8087 72.7399 25.7213 80.2288 31.1745 87.3179C30.3905 84.6019 31.7765 79.5724 37.0965 77.9274C51.8105 73.4054 67.249 75.3234 77.511 79.4779C80.409 80.6434 84.511 79.9364 86.8105 76.4924C90.7323 70.4518 94.299 64.1878 97.4925 57.7324C97.636 57.4419 97.4925 57.2249 97.1985 57.0744ZM73.3565 93.3344C69.0533 91.1592 65.1172 88.3237 61.691 84.9309C60.1055 83.3454 57.771 81.0669 55.3105 78.3509C49.693 78.3509 44.24 78.9144 38.409 80.7764C32.9945 82.4704 32.487 88.7249 34.8565 91.9869C38.864 96.9814 41.6745 99.6764 46.158 104.31C48.5341 106.641 51.7248 107.954 55.053 107.97C58.3812 107.986 61.5847 106.705 63.9835 104.398C67.4835 100.898 69.636 98.5634 73.591 94.0799C73.8255 93.8419 73.738 93.4254 73.3565 93.3344Z" fill="white"/>
</g>
<defs>
<clipPath id="clip0_479_17404">
<rect width="112" height="112" fill="white"/>
</clipPath>
</defs>
</svg>
