<svg width="200" height="201" viewBox="0 0 200 201" fill="none" xmlns="http://www.w3.org/2000/svg">
<g clip-path="url(#clip0_350_6869)">
<path d="M200 153.46H0V153.56H200V153.46Z" fill="#EBEBEB"/>
<path d="M179.96 159.896H166.712V159.996H179.96V159.896Z" fill="#EBEBEB"/>
<path d="M161.676 159.896H133.352V159.996H161.676V159.896Z" fill="#EBEBEB"/>
<path d="M117.732 156.184H110.056V156.284H117.732V156.184Z" fill="#EBEBEB"/>
<path d="M34.7001 156.856H20.9841V156.956H34.7001V156.856Z" fill="#EBEBEB"/>
<path d="M63.2 156.856H38.26V156.956H63.2V156.856Z" fill="#EBEBEB"/>
<path d="M90.056 158.544H75.332V158.644H90.056V158.544Z" fill="#EBEBEB"/>
<path d="M94.7999 135.62H17.5639C16.9589 135.619 16.379 135.378 15.9515 134.95C15.524 134.521 15.2839 133.941 15.2839 133.336V24.764C15.2892 24.1624 15.5316 23.5872 15.9585 23.1633C16.3854 22.7394 16.9623 22.501 17.5639 22.5H94.7999C95.4057 22.5 95.9866 22.7406 96.415 23.169C96.8433 23.5973 97.0839 24.1782 97.0839 24.784V133.336C97.0839 133.942 96.8433 134.523 96.415 134.951C95.9866 135.379 95.4057 135.62 94.7999 135.62ZM17.5639 22.58C16.9854 22.5811 16.4309 22.8116 16.0222 23.2211C15.6135 23.6306 15.3839 24.1855 15.3839 24.764V133.336C15.3839 133.915 15.6135 134.469 16.0222 134.879C16.4309 135.288 16.9854 135.519 17.5639 135.52H94.7999C95.3788 135.519 95.9337 135.289 96.3431 134.879C96.7524 134.47 96.9829 133.915 96.9839 133.336V24.764C96.9829 24.1851 96.7524 23.6302 96.3431 23.2208C95.9337 22.8115 95.3788 22.5811 94.7999 22.58H17.5639Z" fill="#EBEBEB"/>
<path d="M181.324 135.62H104.084C103.479 135.619 102.898 135.378 102.47 134.95C102.042 134.522 101.801 133.941 101.8 133.336V24.764C101.806 24.162 102.05 23.5868 102.477 23.163C102.905 22.7392 103.482 22.501 104.084 22.5H181.324C181.925 22.5021 182.501 22.7409 182.927 23.1647C183.353 23.5885 183.595 24.1631 183.6 24.764V133.336C183.6 133.94 183.361 134.52 182.934 134.948C182.507 135.376 181.928 135.618 181.324 135.62ZM104.084 22.58C103.505 22.5811 102.95 22.8115 102.541 23.2208C102.132 23.6302 101.901 24.1851 101.9 24.764V133.336C101.901 133.915 102.132 134.47 102.541 134.879C102.95 135.289 103.505 135.519 104.084 135.52H181.324C181.903 135.519 182.458 135.289 182.867 134.879C183.277 134.47 183.507 133.915 183.508 133.336V24.764C183.507 24.1851 183.277 23.6302 182.867 23.2208C182.458 22.8115 181.903 22.5811 181.324 22.58H104.084Z" fill="#EBEBEB"/>
<path d="M30.336 77.7879H84.616V30.7599L30.336 30.7599L30.336 77.7879Z" fill="#E6E6E6"/>
<path d="M29.1238 77.7879H83.4038V30.7599L29.1238 30.7599L29.1238 77.7879Z" fill="#F5F5F5"/>
<path d="M81.24 76.1081V32.4401H31.292V76.1081H81.24Z" fill="#FAFAFA"/>
<path d="M61.2081 76.1081L70.2601 32.4401H51.3241L42.2761 76.1081H61.2081Z" fill="white"/>
<path d="M32.2039 76.1122V32.4442H31.2919L31.2919 76.1122H32.2039Z" fill="#E6E6E6"/>
<path d="M30.0198 68.2801H82.5078V66.0241H30.0198V68.2801Z" fill="#F5F5F5"/>
<path d="M82.0959 151.08H90.7639V113.492H82.0959V151.08Z" fill="#F0F0F0"/>
<path d="M25.492 153.46H89.104V151.08H25.492V153.46Z" fill="#F0F0F0"/>
<path d="M82.096 113.488H23.824V151.076H82.096V113.488Z" fill="#F5F5F5"/>
<path d="M78.6919 118.116H27.2319V130.444H78.6919V118.116Z" fill="#F0F0F0"/>
<path d="M78.6919 134.124H27.2319V146.452H78.6919V134.124Z" fill="#F0F0F0"/>
<path d="M39.092 125.124H66.832C67.0556 125.123 67.2696 125.034 67.4277 124.876C67.5857 124.718 67.675 124.504 67.676 124.28C67.675 124.056 67.5859 123.842 67.4279 123.683C67.27 123.525 67.0559 123.434 66.832 123.432H39.092C38.8682 123.434 38.6541 123.525 38.4962 123.683C38.3382 123.842 38.2491 124.056 38.248 124.28C38.2491 124.504 38.3384 124.718 38.4964 124.876C38.6545 125.034 38.8685 125.123 39.092 125.124Z" fill="#F5F5F5"/>
<path d="M39.092 141.132H66.832C67.0556 141.131 67.2696 141.042 67.4277 140.884C67.5857 140.726 67.675 140.512 67.676 140.288C67.6761 140.064 67.5873 139.849 67.4291 139.69C67.2709 139.531 67.0563 139.441 66.832 139.44H39.092C38.8678 139.441 38.6532 139.531 38.495 139.69C38.3368 139.849 38.248 140.064 38.248 140.288C38.2491 140.512 38.3384 140.726 38.4964 140.884C38.6545 141.042 38.8685 141.131 39.092 141.132Z" fill="#F5F5F5"/>
<path d="M172.648 55.34C177.584 53.98 179.272 45.024 166.8 41.368C169.552 50.376 164.044 57.7 172.648 55.34Z" fill="#EBEBEB"/>
<path d="M173.74 59.2279C177.632 55.0239 173.952 45.5119 159.936 49.3999C167.864 56.3359 166.96 66.5599 173.74 59.2279Z" fill="#E0E0E0"/>
<path d="M169.9 60.3084C166.644 57.0844 171.308 45.8644 182.06 51.0644C175.968 56.9004 175.6 65.9284 169.9 60.3084Z" fill="#FAFAFA"/>
<path d="M166.652 66.5885H176.128L176.844 60.1765H165.94L166.652 66.5885Z" fill="#E6E6E6"/>
<path d="M165.832 61.3235H176.952C177.14 61.3235 177.32 61.2489 177.452 61.1162C177.585 60.9834 177.66 60.8033 177.66 60.6155C177.66 60.4278 177.585 60.2477 177.452 60.1149C177.32 59.9821 177.14 59.9075 176.952 59.9075H165.832C165.644 59.9075 165.464 59.9821 165.331 60.1149C165.198 60.2477 165.124 60.4278 165.124 60.6155C165.124 60.8033 165.198 60.9834 165.331 61.1162C165.464 61.2489 165.644 61.3235 165.832 61.3235Z" fill="#E6E6E6"/>
<path d="M86.924 142.6V131.74H95.968V120.884H105.016V110.024H114.06V99.1639H123.108V88.3079H132.152V77.4479H141.2V66.5879H150.248H200V153.46H86.924H77.876V142.6H86.924Z" fill="#FAFAFA"/>
<path d="M136.676 142.6V131.74H145.724V120.884H154.768V110.024H163.816V99.1639H172.86V88.3079H181.908V77.4479H190.952V66.5879H200V77.4479V153.46H136.676H127.632V142.6H136.676Z" fill="#E0E0E0"/>
<path d="M127.632 142.6H77.344V145.856H127.632V142.6Z" fill="#EBEBEB"/>
<path d="M136.68 131.74H86.3923V134.996H136.68V131.74Z" fill="#EBEBEB"/>
<path d="M145.724 120.884H95.436V124.14H145.724V120.884Z" fill="#EBEBEB"/>
<path d="M154.772 110.024H104.484V113.28H154.772V110.024Z" fill="#EBEBEB"/>
<path d="M163.816 99.1641H113.528V102.42H163.816V99.1641Z" fill="#EBEBEB"/>
<path d="M172.864 88.3078H122.576V91.5638H172.864V88.3078Z" fill="#EBEBEB"/>
<path d="M181.908 77.448H131.62V80.704H181.908V77.448Z" fill="#EBEBEB"/>
<path d="M190.956 66.5879H140.668V69.8439H190.956V66.5879Z" fill="#EBEBEB"/>
<path d="M100 171.524C142.833 171.524 177.556 169.497 177.556 166.996C177.556 164.495 142.833 162.468 100 162.468C57.1671 162.468 22.4441 164.495 22.4441 166.996C22.4441 169.497 57.1671 171.524 100 171.524Z" fill="#F5F5F5"/>
<path d="M133.88 63.9511C133.808 65.1511 133.668 66.2511 133.512 67.3911C133.356 68.5311 133.144 69.6471 132.904 70.7671C132.436 73.0339 131.76 75.2527 130.884 77.3951L130.52 78.1951L130.432 78.3951L130.4 78.4991L130.336 78.6271C130.214 78.8782 130.059 79.1122 129.876 79.3231C129.658 79.5685 129.398 79.773 129.108 79.9271C128.824 80.0764 128.515 80.1739 128.196 80.2151C127.707 80.2674 127.212 80.2156 126.744 80.0631C126.081 79.8368 125.456 79.5133 124.888 79.1031C124.392 78.753 123.917 78.3723 123.468 77.9631C121.785 76.4021 120.27 74.6686 118.948 72.7911L120.272 71.6671C121.072 72.4071 121.872 73.1551 122.672 73.8631C123.468 74.571 124.298 75.2385 125.16 75.8631C125.566 76.1535 125.988 76.4206 126.424 76.6631C126.776 76.8764 127.155 77.0393 127.552 77.1471C127.688 77.1751 127.784 77.1471 127.74 77.1471C127.646 77.1576 127.558 77.1983 127.488 77.2631C127.464 77.2631 127.464 77.2631 127.488 77.2631L127.616 76.9311L127.896 76.2031C128.59 74.1988 129.132 72.145 129.516 70.0591C129.728 69.0111 129.876 67.9431 130.036 66.8831C130.196 65.8231 130.308 64.7311 130.4 63.7191L133.88 63.9511Z" fill="#FFC3BD"/>
<path d="M131.456 59.5473C129.964 59.9273 128.92 66.0633 128.92 66.0633L133.028 68.8633C133.028 68.8633 136.968 62.6753 135.828 61.0353C134.628 59.3193 133.632 58.9953 131.456 59.5473Z" fill="#1DA1FA"/>
<path d="M131.456 59.5473C129.964 59.9273 128.92 66.0633 128.92 66.0633L133.028 68.8633C133.028 68.8633 136.968 62.6753 135.828 61.0353C134.628 59.3193 133.632 58.9953 131.456 59.5473Z" fill="#1DA1FA"/>
<path opacity="0.4" d="M131.456 59.5473C129.964 59.9273 128.92 66.0633 128.92 66.0633L133.028 68.8633C133.028 68.8633 136.968 62.6753 135.828 61.0353C134.628 59.3193 133.632 58.9953 131.456 59.5473Z" fill="black"/>
<path opacity="0.3" d="M131.588 60.919L130.444 67.099L132.752 68.667L131.588 60.919Z" fill="black"/>
<path d="M120.34 71.4152L118.4 68.3272L117.292 71.8352C117.292 71.8352 118.892 73.5152 120.344 73.1152L120.34 71.4152Z" fill="#FFC3BD"/>
<path d="M115.52 67.307L114.752 70.291L117.276 71.835L118.384 68.327L115.52 67.307Z" fill="#FFC3BD"/>
<path d="M139.52 162.799H135.904L135.66 154.423H139.28L139.52 162.799Z" fill="#FFC3BD"/>
<path d="M171.436 145.999L168.68 148.343L162.372 142.711L165.128 140.371L171.436 145.999Z" fill="#FFC3BD"/>
<path d="M167.924 148.063L170.6 144.999C170.646 144.946 170.709 144.912 170.779 144.902C170.848 144.893 170.918 144.909 170.976 144.947L173.7 146.711C173.768 146.758 173.824 146.818 173.866 146.888C173.908 146.958 173.935 147.036 173.945 147.118C173.955 147.199 173.948 147.281 173.923 147.359C173.899 147.437 173.858 147.51 173.804 147.571C172.852 148.623 172.34 149.083 171.164 150.427C170.444 151.255 169.472 152.543 168.472 153.683C167.472 154.823 166.288 153.903 166.604 153.335C168.008 150.799 167.672 149.911 167.696 148.663C167.7 148.442 167.781 148.23 167.924 148.063Z" fill="#263238"/>
<path d="M135.78 162.383H139.844C139.914 162.383 139.982 162.407 140.035 162.453C140.088 162.499 140.122 162.562 140.132 162.631L140.596 165.831C140.609 165.916 140.603 166.002 140.579 166.084C140.555 166.166 140.513 166.242 140.456 166.306C140.399 166.37 140.328 166.42 140.25 166.454C140.171 166.487 140.086 166.503 140 166.499C138.584 166.475 137.9 166.391 136.112 166.391C135.012 166.391 132.74 166.507 131.22 166.507C129.7 166.507 129.62 165.003 130.256 164.871C133.088 164.259 134.204 163.419 135.16 162.615C135.332 162.466 135.552 162.383 135.78 162.383Z" fill="#263238"/>
<path opacity="0.2" d="M135.664 154.427L135.788 158.743H139.404L139.28 154.427H135.664Z" fill="black"/>
<path opacity="0.2" d="M165.132 140.371L162.372 142.711L165.628 145.615L168.384 143.271L165.132 140.371Z" fill="black"/>
<path d="M131.456 59.5471C131.456 59.5471 129.732 60.1551 133.184 81.3791H147.872C147.628 75.3991 147.62 71.7111 150.476 59.4431C148.42 59.0191 146.336 58.7437 144.24 58.6191C142.019 58.4608 139.789 58.4608 137.568 58.6191C134.704 58.8991 131.456 59.5471 131.456 59.5471Z" fill="#1DA1FA"/>
<path opacity="0.4" d="M131.456 59.5471C131.456 59.5471 129.732 60.1551 133.184 81.3791H147.872C147.628 75.3991 147.62 71.7111 150.476 59.4431C148.42 59.0191 146.336 58.7437 144.24 58.6191C142.019 58.4608 139.789 58.4608 137.568 58.6191C134.704 58.8991 131.456 59.5471 131.456 59.5471Z" fill="black"/>
<path d="M144.241 58.6191C142.019 58.4608 139.79 58.4608 137.569 58.6191C137.209 58.6511 136.841 58.6911 136.477 58.7351C136.326 58.9624 136.23 59.2213 136.195 59.4918C136.16 59.7623 136.188 60.0371 136.277 60.2951C136.745 61.4591 138.433 61.5951 139.665 61.5951C144.213 61.5951 144.981 58.9391 145.013 58.8271L145.057 58.6671C144.801 58.6511 144.513 58.6311 144.241 58.6191Z" fill="white"/>
<path d="M143.6 51.1111C143.176 53.2551 142.76 57.1871 144.26 58.6191C144.26 58.6191 143.672 60.7991 139.684 60.7991C135.284 60.7991 137.588 58.6231 137.588 58.6231C139.988 58.0511 139.92 56.2751 139.504 54.6231L143.6 51.1111Z" fill="#FFC3BD"/>
<path opacity="0.2" d="M141.908 52.5354L139.484 54.6034C139.589 54.9965 139.658 55.3981 139.692 55.8034C140.604 55.6714 141.86 54.6674 141.96 53.7114C142.016 53.3196 141.999 52.9207 141.908 52.5354Z" fill="black"/>
<path d="M141.084 39.4395C140.712 38.1795 140.4 36.1955 142.64 35.2995C141.764 34.2275 141.552 32.2115 142.64 31.0155C143.728 29.8195 145.36 30.2595 145.36 30.2595C145.36 30.2595 145.84 27.3355 149.396 27.8595C152.952 28.3835 151.368 30.7235 151.368 30.7235C151.368 30.7235 156.22 29.7635 156.544 34.3235C156.868 38.8835 154.084 38.3235 154.084 38.3235C154.084 38.3235 156.248 40.1395 155.048 42.1355C153.848 44.1315 151.076 43.4435 151.076 43.4435C151.076 43.4435 149.772 46.9715 146.7 44.9635C143.628 42.9555 141.084 39.4395 141.084 39.4395Z" fill="#263238"/>
<path d="M133.88 42.0991C132.68 43.6511 133.208 45.4071 134.28 46.0991C136.86 47.7471 140.592 40.8351 139.62 40.0071C138.648 39.1791 135.08 40.5431 133.88 42.0991Z" fill="#263238"/>
<path d="M144.716 38.4031C143.02 37.7191 141.3 38.4351 140.764 39.4671C139.456 41.9831 145.396 46.5151 147.116 43.3711C148.136 41.5031 146.464 39.1071 144.716 38.4031Z" fill="#1DA1FA"/>
<path d="M144 46.099C144.124 49.699 144.252 51.203 142.624 53.207C140.18 56.219 135.744 55.587 134.552 52.107C133.48 48.975 133.46 43.635 136.816 41.883C137.554 41.4928 138.379 41.2976 139.214 41.316C140.048 41.3344 140.864 41.5658 141.584 41.9883C142.303 42.4107 142.903 43.0101 143.326 43.7295C143.749 44.449 143.981 45.2646 144 46.099Z" fill="#FFC3BD"/>
<path d="M143.46 47.983C141.86 47.387 141.46 45.519 141.716 44.783C140.916 44.751 139.168 44.463 138.516 43.471C137.268 44.271 134.632 45.071 134.348 43.739C134.064 42.407 138.04 38.983 141.048 38.719C144.624 38.407 148.152 41.919 147.244 45.283C146.336 48.647 143.46 47.983 143.46 47.983Z" fill="#263238"/>
<path d="M133.2 81.3792C133.2 81.3792 130.348 109.239 130.584 120.271C130.832 131.743 135.036 157.907 135.036 157.907H139.924C139.924 157.907 139.152 132.411 139.584 121.147C140.056 108.863 143.956 81.3792 143.956 81.3792H133.2Z" fill="#263238"/>
<path d="M140.332 158.083H134.596L134.172 156.255L140.6 156.031L140.332 158.083Z" fill="#1DA1FA"/>
<path opacity="0.2" d="M139.52 88.3114C135.92 95.5674 138.796 108.807 140.072 113.735C140.724 106.335 141.828 97.2914 142.688 90.6514C142.144 86.8994 141.2 84.9634 139.52 88.3114Z" fill="black"/>
<path d="M137.064 81.3789C137.064 81.3789 140.392 110.343 142.904 119.643C145.888 130.683 164.42 145.543 164.42 145.543L168.18 142.343C168.18 142.343 154.748 126.199 152.464 120.383C147.596 107.983 151.764 89.4708 147.872 81.3708L137.064 81.3789Z" fill="#263238"/>
<path d="M168.78 142.179L164.116 146.139L162.372 145.095L167.648 140.187L168.78 142.179Z" fill="#1DA1FA"/>
<path d="M138.676 47.6033C138.704 47.8953 138.572 48.1433 138.384 48.1633C138.196 48.1833 138.016 47.9593 137.984 47.6713C137.952 47.3833 138.088 47.1273 138.28 47.1113C138.472 47.0953 138.648 47.2993 138.676 47.6033Z" fill="#263238"/>
<path d="M135.396 47.919C135.424 48.207 135.292 48.459 135.1 48.479C134.908 48.499 134.736 48.275 134.7 47.983C134.664 47.691 134.804 47.443 134.992 47.427C135.18 47.411 135.368 47.627 135.396 47.919Z" fill="#263238"/>
<path d="M135.084 47.4352L134.368 47.2992C134.368 47.2992 134.8 47.8112 135.084 47.4352Z" fill="#263238"/>
<path d="M136.308 48.335C136.113 49.0218 135.825 49.6786 135.452 50.287C135.611 50.3783 135.787 50.4341 135.97 50.4507C136.152 50.4673 136.336 50.4442 136.508 50.383L136.308 48.335Z" fill="#ED847E"/>
<path d="M138.12 51.3394C137.962 51.3827 137.8 51.4122 137.636 51.4274C137.625 51.4285 137.614 51.4274 137.603 51.4241C137.593 51.4209 137.583 51.4156 137.574 51.4085C137.566 51.4015 137.559 51.3928 137.554 51.383C137.548 51.3732 137.545 51.3624 137.544 51.3514C137.542 51.3286 137.549 51.3059 137.563 51.288C137.577 51.2701 137.597 51.2584 137.62 51.2554C137.982 51.2287 138.333 51.1175 138.644 50.9306C138.955 50.7437 139.218 50.4864 139.412 50.1794C139.417 50.1688 139.424 50.1593 139.432 50.1516C139.441 50.1439 139.451 50.1381 139.462 50.1347C139.473 50.1313 139.485 50.1303 139.496 50.1318C139.507 50.1333 139.518 50.1372 139.528 50.1434C139.548 50.1544 139.563 50.1726 139.569 50.1942C139.576 50.2158 139.574 50.2391 139.564 50.2594C139.241 50.7934 138.724 51.1807 138.12 51.3394Z" fill="#263238"/>
<path d="M144.84 48.5834C144.753 49.2718 144.396 49.8974 143.848 50.3234C143.116 50.8834 142.412 50.3234 142.328 49.4474C142.256 48.6474 142.544 47.4474 143.416 47.2154C143.607 47.1767 143.804 47.1847 143.99 47.2388C144.177 47.2928 144.347 47.3914 144.487 47.5259C144.627 47.6604 144.733 47.827 144.794 48.0112C144.856 48.1954 144.872 48.3917 144.84 48.5834Z" fill="#FFC3BD"/>
<path d="M139.029 45.5473C139.006 45.553 138.983 45.5541 138.96 45.5506C138.938 45.5472 138.916 45.5393 138.896 45.5273C138.715 45.4116 138.509 45.3404 138.295 45.3195C138.081 45.2987 137.865 45.3287 137.664 45.4073C137.623 45.4258 137.576 45.4278 137.533 45.413C137.49 45.3981 137.454 45.3675 137.432 45.3273C137.413 45.2864 137.411 45.2396 137.426 45.1969C137.441 45.1542 137.472 45.1192 137.512 45.0993C137.764 44.9953 138.038 44.9533 138.309 44.977C138.581 45.0007 138.842 45.0893 139.072 45.2353C139.091 45.2468 139.108 45.2619 139.121 45.2798C139.134 45.2977 139.144 45.3181 139.149 45.3396C139.154 45.3612 139.155 45.3836 139.151 45.4055C139.148 45.4274 139.14 45.4484 139.129 45.4673C139.106 45.5056 139.071 45.5342 139.029 45.5473Z" fill="#263238"/>
<path d="M133.788 46.5431C133.747 46.5588 133.701 46.5588 133.66 46.5431C133.621 46.5204 133.593 46.4837 133.58 46.4406C133.567 46.3975 133.572 46.3511 133.592 46.3111C133.714 46.0676 133.893 45.8572 134.114 45.6978C134.335 45.5383 134.591 45.4345 134.86 45.3951C134.883 45.3929 134.905 45.3952 134.927 45.4019C134.948 45.4086 134.968 45.4196 134.985 45.4341C135.002 45.4487 135.016 45.4665 135.027 45.4866C135.037 45.5067 135.043 45.5286 135.044 45.5511C135.048 45.5961 135.033 45.6406 135.004 45.675C134.975 45.7094 134.933 45.731 134.888 45.7351C134.676 45.7708 134.475 45.856 134.302 45.9839C134.129 46.1118 133.989 46.2787 133.892 46.4711C133.881 46.4897 133.866 46.5057 133.848 46.5181C133.83 46.5305 133.81 46.539 133.788 46.5431Z" fill="#263238"/>
<path d="M151.976 63.3428C152.792 65.3381 153.496 67.3772 154.084 69.4508C154.708 71.5425 155.152 73.6836 155.412 75.8508C155.48 76.4028 155.5 76.9828 155.524 77.5548V77.8788C155.524 77.9948 155.504 78.1148 155.488 78.2188C155.455 78.4187 155.409 78.6164 155.352 78.8108C155.248 79.1435 155.114 79.4661 154.952 79.7748C154.398 80.8003 153.718 81.753 152.928 82.6108C151.468 84.2147 149.861 85.6785 148.128 86.9828L146.972 85.6988C148.304 84.1428 149.648 82.5468 150.788 80.8988C151.339 80.151 151.808 79.3464 152.188 78.4988C152.253 78.3348 152.307 78.1664 152.348 77.9948C152.359 77.9367 152.366 77.8779 152.368 77.8188C152.37 77.8016 152.37 77.7841 152.368 77.7668V77.7108C152.316 77.2388 152.28 76.7668 152.192 76.2828C151.848 74.3069 151.368 72.3569 150.756 70.4468C150.144 68.5108 149.46 66.5468 148.756 64.6748L151.976 63.3428Z" fill="#FFC3BD"/>
<path d="M150.476 59.443C151.948 59.891 153.716 64.959 153.716 64.959L148 69.039C148 69.039 145.916 64.811 146.536 62.907C147.2 60.927 148.8 58.931 150.476 59.443Z" fill="#1DA1FA"/>
<path opacity="0.4" d="M150.476 59.443C151.948 59.891 153.716 64.959 153.716 64.959L148 69.039C148 69.039 145.916 64.811 146.536 62.907C147.2 60.927 148.8 58.931 150.476 59.443Z" fill="black"/>
<path d="M166.936 149.807C166.862 149.805 166.79 149.787 166.724 149.753C166.658 149.719 166.601 149.67 166.556 149.611C166.52 149.574 166.494 149.527 166.481 149.477C166.469 149.426 166.47 149.373 166.484 149.323C166.62 148.883 167.876 148.523 168.02 148.483C168.036 148.478 168.053 148.477 168.069 148.482C168.085 148.487 168.099 148.498 168.108 148.511C168.117 148.525 168.122 148.541 168.122 148.557C168.122 148.574 168.117 148.59 168.108 148.603C167.884 149.031 167.44 149.751 166.984 149.803L166.936 149.807ZM167.864 148.707C167.368 148.867 166.72 149.143 166.664 149.375C166.658 149.397 166.658 149.42 166.665 149.442C166.671 149.464 166.683 149.484 166.7 149.499C166.732 149.545 166.776 149.582 166.826 149.606C166.877 149.629 166.933 149.64 166.988 149.635C167.22 149.607 167.544 149.263 167.864 148.707Z" fill="#1DA1FA"/>
<path d="M167.468 148.723C167.094 148.761 166.719 148.655 166.42 148.427C166.378 148.374 166.355 148.308 166.355 148.241C166.355 148.173 166.378 148.108 166.42 148.055C166.456 147.999 166.503 147.953 166.559 147.918C166.615 147.883 166.679 147.862 166.744 147.855C167.264 147.791 168.052 148.471 168.084 148.499C168.096 148.508 168.105 148.521 168.11 148.535C168.114 148.549 168.115 148.564 168.112 148.579C168.11 148.595 168.104 148.609 168.094 148.621C168.084 148.633 168.071 148.642 168.056 148.647C167.865 148.701 167.667 148.727 167.468 148.723ZM166.832 148.023H166.776C166.735 148.028 166.696 148.041 166.66 148.062C166.625 148.084 166.595 148.113 166.572 148.147C166.512 148.239 166.532 148.287 166.572 148.319C166.728 148.523 167.44 148.599 167.872 148.519C167.576 148.263 167.217 148.092 166.832 148.023Z" fill="#1DA1FA"/>
<path d="M134.42 163.015C134.111 163.043 133.802 162.964 133.544 162.791C133.489 162.741 133.447 162.679 133.42 162.609C133.392 162.54 133.382 162.465 133.388 162.391C133.392 162.344 133.407 162.298 133.433 162.258C133.459 162.218 133.494 162.185 133.536 162.163C133.98 161.919 135.42 162.655 135.584 162.743C135.6 162.752 135.612 162.765 135.62 162.78C135.628 162.796 135.631 162.814 135.628 162.831C135.626 162.849 135.618 162.865 135.606 162.878C135.594 162.891 135.578 162.9 135.56 162.903C135.185 162.975 134.803 163.012 134.42 163.015ZM133.776 162.267C133.721 162.263 133.666 162.274 133.616 162.299C133.599 162.307 133.585 162.32 133.575 162.337C133.565 162.353 133.56 162.372 133.56 162.391C133.554 162.441 133.559 162.492 133.577 162.539C133.594 162.587 133.623 162.629 133.66 162.663C133.88 162.863 134.46 162.895 135.26 162.763C134.798 162.514 134.296 162.346 133.776 162.267Z" fill="#1DA1FA"/>
<path d="M135.545 162.899H135.509C135.077 162.703 134.225 161.923 134.309 161.515C134.309 161.419 134.393 161.295 134.629 161.271C134.714 161.262 134.8 161.271 134.882 161.296C134.964 161.322 135.039 161.364 135.105 161.419C135.557 161.799 135.641 162.771 135.645 162.815C135.646 162.83 135.643 162.845 135.637 162.858C135.63 162.871 135.621 162.883 135.609 162.891C135.599 162.897 135.588 162.901 135.577 162.902C135.566 162.904 135.555 162.903 135.545 162.899ZM134.681 161.431H134.633C134.473 161.431 134.465 161.511 134.461 161.531C134.421 161.775 135.001 162.391 135.441 162.655C135.405 162.244 135.243 161.854 134.977 161.539C134.896 161.465 134.79 161.422 134.681 161.419V161.431Z" fill="#1DA1FA"/>
<path d="M148.093 80.4995L148.469 81.8154C148.521 81.9154 148.401 82.0195 148.229 82.0195H133.113C132.981 82.0195 132.869 81.9554 132.861 81.8714L132.729 80.5594C132.729 80.4674 132.833 80.3914 132.981 80.3914H147.857C147.902 80.3876 147.947 80.3955 147.989 80.4144C148.03 80.4334 148.066 80.4626 148.093 80.4995Z" fill="#1DA1FA"/>
<path opacity="0.3" d="M148.093 80.4995L148.469 81.8154C148.521 81.9154 148.401 82.0195 148.229 82.0195H133.113C132.981 82.0195 132.869 81.9554 132.861 81.8714L132.729 80.5594C132.729 80.4674 132.833 80.3914 132.981 80.3914H147.857C147.902 80.3876 147.947 80.3955 147.989 80.4144C148.03 80.4334 148.066 80.4626 148.093 80.4995Z" fill="white"/>
<path d="M146.097 82.1794H146.497C146.573 82.1794 146.633 82.1394 146.629 82.0874L146.441 80.3794C146.441 80.3314 146.369 80.2874 146.289 80.2874H145.889C145.809 80.2874 145.749 80.3314 145.757 80.3794L145.941 82.0874C145.949 82.1394 146.001 82.1794 146.097 82.1794Z" fill="#263238"/>
<path d="M134.232 82.1789H134.632C134.712 82.1789 134.772 82.1389 134.768 82.0869L134.58 80.3789C134.58 80.3309 134.504 80.2869 134.428 80.2869H134.028C133.948 80.2869 133.888 80.3309 133.892 80.3789L134.08 82.0869C134.084 82.1389 134.152 82.1789 134.232 82.1789Z" fill="#263238"/>
<path d="M140.164 82.1789H140.564C140.644 82.1789 140.704 82.1389 140.7 82.0869L140.512 80.3789C140.512 80.3309 140.44 80.2869 140.36 80.2869H139.96C139.88 80.2869 139.82 80.3309 139.828 80.3789L140 82.0989C140 82.1389 140.084 82.1789 140.164 82.1789Z" fill="#263238"/>
<path d="M138.368 47.1195L137.652 46.9835C137.652 46.9835 138.06 47.4955 138.368 47.1195Z" fill="#263238"/>
<path opacity="0.2" d="M125.128 98.0554C118.352 100.688 110.946 101.252 103.849 99.6764C96.7514 98.1006 90.2806 94.4555 85.2547 89.2021C80.2288 83.9488 76.8736 77.3231 75.6132 70.1628C74.3529 63.0026 75.2441 55.6295 78.1741 48.9757C81.1041 42.322 85.9413 36.6865 92.0741 32.7818C98.2069 28.8772 105.36 26.8788 112.628 27.0393C119.897 27.1998 126.955 29.5121 132.909 33.6836C138.863 37.8552 143.447 43.6988 146.08 50.4754C147.83 54.9752 148.675 59.7755 148.569 64.6021C148.463 69.4288 147.406 74.1872 145.461 78.6056C143.515 83.024 140.718 87.0159 137.229 90.3531C133.741 93.6903 129.629 96.3076 125.128 98.0554Z" fill="#1DA1FA"/>
<path opacity="0.1" d="M118.476 27.6393L89.6444 93.1193C89.2004 92.7833 88.7604 92.4353 88.3284 92.0833C85.5417 89.778 83.115 87.0695 81.1284 84.0473L106.032 27.4873C110.158 26.8228 114.368 26.8742 118.476 27.6393Z" fill="white"/>
<path opacity="0.1" d="M138.972 38.9994L111.864 100.563C106.233 100.569 100.677 99.2802 95.624 96.7954L125.224 29.5674C130.468 31.6183 135.171 34.8451 138.972 38.9994Z" fill="white"/>
<path d="M81.5523 39.0273C86.4505 33.0421 93.0136 28.6439 100.411 26.3887C107.809 24.1335 115.71 24.1227 123.114 26.3576C130.518 28.5926 137.093 32.9729 142.008 38.9446C146.922 44.9164 149.956 52.2114 150.724 59.9071C151.493 67.6028 149.962 75.3537 146.326 82.1794C142.689 89.0052 137.111 94.5994 130.295 98.2546C123.479 101.91 115.732 103.462 108.035 102.714C100.337 101.967 93.0335 98.9535 87.0483 94.0553C79.0232 87.4864 73.9358 77.9988 72.9052 67.6794C71.8745 57.3599 74.9849 47.0537 81.5523 39.0273ZM139.6 86.5313C144.096 81.0352 146.862 74.3293 147.547 67.2615C148.232 60.1938 146.806 53.0816 143.449 46.8242C140.093 40.5669 134.956 35.4454 128.688 32.1075C122.421 28.7695 115.304 27.365 108.239 28.0714C101.173 28.7779 94.4755 31.5636 88.993 36.0764C83.5105 40.5891 79.4892 46.6262 77.4377 53.4243C75.3862 60.2224 75.3966 67.4762 77.4675 74.2684C79.5384 81.0606 83.5769 87.0862 89.0723 91.5833C92.7216 94.5696 96.9234 96.8079 101.438 98.1702C105.952 99.5326 110.691 99.9923 115.383 99.5231C120.075 99.054 124.628 97.6652 128.784 95.4361C132.939 93.2069 136.615 90.181 139.6 86.5313Z" fill="#1DA1FA"/>
<path d="M143.052 86.395C146.904 88.695 150.568 91.223 154.168 93.831C157.768 96.439 161.276 99.155 164.728 101.943C168.18 104.731 171.568 107.599 174.836 110.611C176.473 112.115 178.073 113.659 179.636 115.243C181.204 116.843 182.744 118.443 184.196 120.179C184.532 120.581 184.717 121.087 184.719 121.611C184.722 122.134 184.542 122.642 184.211 123.048C183.879 123.453 183.417 123.73 182.903 123.831C182.39 123.933 181.857 123.852 181.396 123.603C179.396 122.523 177.524 121.331 175.656 120.111C173.788 118.891 171.964 117.619 170.164 116.311C166.564 113.703 163.08 110.955 159.668 108.119C156.256 105.283 152.896 102.383 149.628 99.367C146.36 96.351 143.156 93.263 140.14 89.943C139.764 89.5323 139.548 88.9997 139.532 88.4428C139.516 87.8858 139.702 87.3419 140.055 86.9107C140.408 86.4795 140.904 86.19 141.453 86.0953C142.002 86.0006 142.567 86.107 143.044 86.395H143.052Z" fill="#1DA1FA"/>
<path d="M147.356 85.2992L143.492 85.8872L146.256 88.3112C146.256 88.3112 148.44 87.5112 148.656 86.0312L147.356 85.2992Z" fill="#FFC3BD"/>
<path d="M141.404 88.1069L143.832 90.0109L146.796 88.0749L143.492 85.8949L141.404 88.1069Z" fill="#FFC3BD"/>
<path d="M123.136 92.3194C123.489 91.356 124.125 90.522 124.961 89.9272C125.797 89.3325 126.794 89.0048 127.82 88.9874H159.84C160.393 88.9668 160.944 89.0677 161.454 89.2833C161.964 89.4988 162.421 89.8236 162.792 90.2349C163.162 90.6461 163.438 91.1336 163.6 91.6631C163.762 92.1927 163.806 92.7512 163.728 93.2994L155.456 162.703C155.28 163.885 154.69 164.966 153.791 165.752C152.892 166.538 151.742 166.979 150.548 166.995H48.9479C48.3965 167.016 47.8471 166.916 47.3386 166.702C46.83 166.488 46.3745 166.165 46.0043 165.756C45.634 165.347 45.3579 164.861 45.1955 164.334C45.033 163.807 44.9881 163.25 45.0639 162.703L51.9999 104.391C52.1754 103.21 52.7656 102.129 53.6647 101.343C54.5639 100.557 55.7135 100.116 56.9079 100.099H112.196C114.592 100.059 116.919 99.2935 118.872 97.9049C120.824 96.5162 122.311 94.569 123.136 92.3194Z" fill="#1DA1FA"/>
<path d="M46.8918 163.799H153.056L159.104 92.3675H52.9438L46.8918 163.799Z" fill="#F0F0F0"/>
<path d="M46.8918 163.799H153.056L157.432 92.3675H52.9438L46.8918 163.799Z" fill="#E0E0E0"/>
<path d="M46.8918 163.799H153.056L156.704 90.0995H50.5438L46.8918 163.799Z" fill="#F0F0F0"/>
<path d="M46.8918 163.799H153.056L154.5 90.0995H50.5438L46.8918 163.799Z" fill="#E0E0E0"/>
<path d="M46.8918 163.799H153.056L153.688 88.0995H47.5278L46.8918 163.799Z" fill="#F0F0F0"/>
<path d="M46.8917 163.8H153.056L150.876 89.5317H45.3997L46.8917 163.8Z" fill="#E0E0E0"/>
<path d="M46.8919 163.799H153.056L149.904 90.0995H43.7439L46.8919 163.799Z" fill="#F0F0F0"/>
<path d="M46.8917 163.799H153.056L148.036 91.2114H41.8757L46.8917 163.799Z" fill="#E0E0E0"/>
<path d="M46.8919 163.799H153.056L147.236 91.8311H41.0759L46.8919 163.799Z" fill="#F0F0F0"/>
<path d="M100.056 96.8269C100.062 96.3628 100.161 95.9046 100.348 95.4797C100.534 95.0547 100.805 94.6717 101.142 94.3533C101.48 94.035 101.878 93.7879 102.314 93.6266C102.749 93.4654 103.212 93.3934 103.676 93.4149H135.696C136.935 93.4625 138.124 93.9204 139.076 94.7168C140.027 95.5132 140.687 96.6029 140.952 97.8149L153.604 162.615C154.076 165.043 152.492 167.015 150.064 167.015H48.4638C46.0318 167.015 43.6638 165.043 43.2038 162.615L32.7678 109.195C32.2958 106.767 33.8798 104.795 36.3078 104.795H91.5998C96.3998 104.795 99.8918 101.491 100.056 96.8269Z" fill="#1DA1FA"/>
<path opacity="0.2" d="M100.056 96.8269C100.062 96.3628 100.161 95.9046 100.348 95.4797C100.534 95.0547 100.805 94.6717 101.142 94.3533C101.48 94.035 101.878 93.7879 102.314 93.6266C102.749 93.4654 103.212 93.3934 103.676 93.4149H135.696C136.935 93.4625 138.124 93.9204 139.076 94.7168C140.027 95.5132 140.687 96.6029 140.952 97.8149L153.604 162.615C154.076 165.043 152.492 167.015 150.064 167.015H48.4638C46.0318 167.015 43.6638 165.043 43.2038 162.615L32.7678 109.195C32.2958 106.767 33.8798 104.795 36.3078 104.795H91.5998C96.3998 104.795 99.8918 101.491 100.056 96.8269Z" fill="black"/>
<path d="M96.1334 152.14C94.2667 152.14 92.6223 151.767 91.2001 151.02C89.7779 150.291 88.6667 149.242 87.8667 147.873C87.0845 146.522 86.6934 144.922 86.6934 143.073C86.6934 141.189 87.0045 139.447 87.6267 137.847C88.2667 136.229 89.1645 134.815 90.3201 133.607C91.4934 132.398 92.8712 131.455 94.4534 130.78C96.0534 130.104 97.8223 129.767 99.7601 129.767C101.716 129.767 103.413 130.149 104.853 130.913C106.311 131.66 107.44 132.709 108.24 134.06C109.058 135.393 109.467 136.949 109.467 138.727C109.467 139.758 109.342 140.762 109.093 141.74C108.845 142.718 108.48 143.607 108 144.407C107.52 145.189 106.933 145.82 106.24 146.3C105.547 146.762 104.747 146.993 103.84 146.993C102.773 146.993 102 146.664 101.52 146.007C101.058 145.349 100.889 144.504 101.013 143.473L101.093 142.567L101.547 143.367C101.12 144.487 100.418 145.375 99.4401 146.033C98.4801 146.673 97.4312 146.993 96.2934 146.993C94.9601 146.993 93.9201 146.584 93.1734 145.767C92.4267 144.949 92.0534 143.838 92.0534 142.433C92.0534 141.455 92.2045 140.522 92.5067 139.633C92.8267 138.744 93.2623 137.953 93.8134 137.26C94.3823 136.549 95.049 135.989 95.8134 135.58C96.5779 135.171 97.4401 134.967 98.4001 134.967C99.4845 134.967 100.347 135.26 100.987 135.847C101.627 136.415 102 137.26 102.107 138.38L101.573 138.727L102.187 135.26H104.08L102.747 142.887C102.622 143.651 102.658 144.273 102.853 144.753C103.067 145.215 103.502 145.447 104.16 145.447C104.747 145.447 105.253 145.242 105.68 144.833C106.107 144.424 106.462 143.891 106.747 143.233C107.049 142.575 107.271 141.864 107.413 141.1C107.573 140.318 107.653 139.562 107.653 138.833C107.653 137.269 107.325 135.935 106.667 134.833C106.009 133.713 105.067 132.851 103.84 132.247C102.631 131.642 101.182 131.34 99.4934 131.34C97.8756 131.34 96.4001 131.633 95.0667 132.22C93.7334 132.807 92.569 133.633 91.5734 134.7C90.5956 135.749 89.8401 136.975 89.3067 138.38C88.7734 139.767 88.5067 141.269 88.5067 142.887C88.5067 144.522 88.8267 145.909 89.4667 147.047C90.1245 148.184 91.0579 149.047 92.2667 149.633C93.4756 150.238 94.9067 150.54 96.5601 150.54C97.3245 150.54 98.0801 150.46 98.8267 150.3C99.5912 150.158 100.302 149.935 100.96 149.633L101.36 151.153C100.56 151.491 99.7156 151.74 98.8267 151.9C97.9556 152.06 97.0579 152.14 96.1334 152.14ZM96.9601 145.287C97.7067 145.287 98.3912 145.082 99.0134 144.673C99.6356 144.264 100.151 143.704 100.56 142.993C100.969 142.264 101.218 141.42 101.307 140.46C101.396 139.767 101.342 139.135 101.147 138.567C100.969 137.998 100.649 137.544 100.187 137.207C99.7423 136.851 99.1645 136.673 98.4534 136.673C97.7779 136.673 97.1645 136.833 96.6134 137.153C96.0801 137.455 95.6267 137.864 95.2534 138.38C94.8979 138.895 94.6134 139.473 94.4001 140.113C94.2045 140.753 94.1067 141.411 94.1067 142.087C94.1067 143.047 94.3467 143.82 94.8267 144.407C95.3067 144.993 96.0179 145.287 96.9601 145.287Z" fill="white"/>
</g>
<defs>
<clipPath id="clip0_350_6869">
<rect width="200" height="200" fill="white" transform="translate(0 0.5)"/>
</clipPath>
</defs>
</svg>
