<svg width="270" height="68" viewBox="0 0 270 68" fill="none" xmlns="http://www.w3.org/2000/svg">
<g clip-path="url(#clip0_479_17411)">
<path d="M67.8024 8.33198C47.5071 1.11753 25.4472 0.521616 4.79193 6.62986C3.97091 6.82633 3.19789 7.18623 2.51904 7.68807C1.84018 8.1899 1.26941 8.82339 0.840802 9.55069C0.412192 10.278 0.134532 11.0842 0.0244015 11.9212C-0.0857291 12.7582 -0.0260725 13.6088 0.199809 14.4222C1.33031 18.9591 2.97931 24.1717 4.95981 28.8977C4.99381 29.0082 5.04693 28.9551 5.04693 28.8446C4.76006 26.6282 6.46431 23.8296 9.80693 22.8117C25.8706 17.6978 43.1588 17.9267 59.0814 23.4641C59.6688 23.6644 60.2902 23.7452 60.9093 23.7017C61.5283 23.6583 62.1324 23.4915 62.686 23.2111C63.2396 22.9307 63.7315 22.5425 64.1329 22.0692C64.5342 21.5959 64.8368 21.0471 65.0229 20.4551C67.0034 14.0801 67.8024 9.75148 68.0001 8.66773C68.0341 8.46586 67.8556 8.38723 67.8024 8.33198ZM18.8361 22.357C16.4029 22.8649 13.0391 23.6639 10.5146 24.5011C5.46768 26.2415 5.70143 32.3827 8.38956 34.342C8.58718 33.203 9.80693 31.6539 11.1669 31.1311C16.2053 29.1506 21.6156 27.967 27.0853 27.4782C24.3058 26.3499 21.5943 24.7327 18.8722 22.3549L18.8361 22.357ZM59.0134 34.6522C51.7629 31.2447 43.9027 29.3257 35.8977 29.0085C27.8927 28.6913 19.9053 29.9825 12.4079 32.8056C10.0046 33.713 8.50006 36.637 10.0046 39.4122C12.6339 44.1634 15.6166 48.7103 18.9274 53.0144C18.4514 51.3654 19.2929 48.3117 22.5229 47.313C31.4564 44.5675 40.8298 45.732 47.0603 48.2544C48.8198 48.962 51.3103 48.5327 52.7064 46.4417C55.0875 42.7742 57.253 38.9711 59.1919 35.0517C59.2791 34.8754 59.1919 34.7436 59.0134 34.6522ZM44.5379 56.6672C41.9253 55.3465 39.5355 53.625 37.4553 51.5651C36.4927 50.6025 35.0753 49.2191 33.5814 47.5701C30.1708 47.5701 26.8601 47.9122 23.3198 49.0427C20.0324 50.0712 19.7243 53.8686 21.1629 55.8491C23.5961 58.8815 25.3024 60.5177 28.0246 63.3312C29.4672 64.7462 31.4044 65.5433 33.4251 65.5532C35.4458 65.5631 37.3908 64.7851 38.8472 63.3844C40.9722 61.2594 42.2791 59.842 44.6803 57.1199C44.8227 56.9754 44.7696 56.7225 44.5379 56.6672Z" fill="white"/>
</g>
<path d="M60.4265 63V33.9091H78.6651V37.6875H64.8157V46.5511H77.7134V50.3153H64.8157V59.2216H78.8356V63H60.4265ZM84.5281 63V33.9091H88.9173V59.2216H102.099V63H84.5281ZM107.106 63V33.9091H111.495V59.2216H124.677V63H107.106ZM153.821 48.4545C153.821 51.5606 153.253 54.2311 152.117 56.4659C150.98 58.6913 149.423 60.4053 147.444 61.608C145.474 62.8011 143.234 63.3977 140.725 63.3977C138.206 63.3977 135.957 62.8011 133.978 61.608C132.008 60.4053 130.455 58.6866 129.319 56.4517C128.182 54.2169 127.614 51.5511 127.614 48.4545C127.614 45.3485 128.182 42.6828 129.319 40.4574C130.455 38.2225 132.008 36.5085 133.978 35.3153C135.957 34.1127 138.206 33.5114 140.725 33.5114C143.234 33.5114 145.474 34.1127 147.444 35.3153C149.423 36.5085 150.98 38.2225 152.117 40.4574C153.253 42.6828 153.821 45.3485 153.821 48.4545ZM149.475 48.4545C149.475 46.0871 149.091 44.0937 148.324 42.4744C147.567 40.8456 146.525 39.6146 145.199 38.7812C143.883 37.9384 142.391 37.517 140.725 37.517C139.049 37.517 137.552 37.9384 136.236 38.7812C134.92 39.6146 133.878 40.8456 133.111 42.4744C132.354 44.0937 131.975 46.0871 131.975 48.4545C131.975 50.822 132.354 52.8201 133.111 54.4489C133.878 56.0682 134.92 57.2992 136.236 58.142C137.552 58.9754 139.049 59.392 140.725 59.392C142.391 59.392 143.883 58.9754 145.199 58.142C146.525 57.2992 147.567 56.0682 148.324 54.4489C149.091 52.8201 149.475 50.822 149.475 48.4545ZM164.638 63L156.57 33.9091H161.186L166.854 56.4375H167.124L173.019 33.9091H177.593L183.488 56.4517H183.757L189.411 33.9091H194.042L185.959 63H181.542L175.419 41.2102H175.192L169.07 63H164.638ZM198.044 63V33.9091H208.413C210.676 33.9091 212.551 34.321 214.038 35.1449C215.525 35.9687 216.637 37.0956 217.376 38.5256C218.115 39.946 218.484 41.5464 218.484 43.3267C218.484 45.1165 218.11 46.7263 217.362 48.1562C216.623 49.5767 215.506 50.7036 214.01 51.5369C212.523 52.3608 210.653 52.7727 208.399 52.7727H201.268V49.0511H208.001C209.431 49.0511 210.591 48.8049 211.481 48.3125C212.371 47.8106 213.025 47.1288 213.441 46.267C213.858 45.4053 214.066 44.4252 214.066 43.3267C214.066 42.2282 213.858 41.2528 213.441 40.4006C213.025 39.5483 212.367 38.8807 211.467 38.3977C210.577 37.9148 209.403 37.6733 207.944 37.6733H202.433V63H198.044ZM223.001 63H218.342L228.811 33.9091H233.882L244.35 63H239.691L231.467 39.1932H231.24L223.001 63ZM223.782 51.608H238.896V55.3011H223.782V51.608ZM243.338 33.9091H248.324L255.924 47.1335H256.236L263.836 33.9091H268.821L258.267 51.5795V63H253.892V51.5795L243.338 33.9091Z" fill="white"/>
<defs>
<clipPath id="clip0_479_17411">
<rect width="68" height="68" fill="white"/>
</clipPath>
</defs>
</svg>
