<svg width="230" height="209" viewBox="0 0 230 209" fill="none" xmlns="http://www.w3.org/2000/svg">
<path d="M117.838 202.08C170.11 202.08 212.485 159.439 212.485 106.839C212.485 54.2385 170.11 11.5977 117.838 11.5977C65.5669 11.5977 23.1924 54.2385 23.1924 106.839C23.1924 159.439 65.5669 202.08 117.838 202.08Z" fill="#F1F3F9" stroke="#1DA1FA" stroke-width="3.43225" stroke-miterlimit="10"/>
<path d="M224.172 116.03C227.123 113.317 227.329 108.711 224.633 105.742C221.937 102.773 217.359 102.566 214.409 105.279C211.459 107.992 211.253 112.598 213.949 115.567C216.645 118.536 221.222 118.743 224.172 116.03Z" fill="#1DA1FA"/>
<path d="M41.9937 34.476C44.4942 33.6581 45.8624 30.9553 45.0497 28.4391C44.237 25.9229 41.5511 24.546 39.0505 25.3639C36.55 26.1817 35.1818 28.8845 35.9945 31.4008C36.8073 33.917 39.4932 35.2938 41.9937 34.476Z" fill="#EAEEF9"/>
<path d="M12.6924 55.1648C14.3928 54.6087 15.3232 52.7708 14.7705 51.0598C14.2178 49.3487 12.3914 48.4125 10.6911 48.9686C8.99071 49.5248 8.06032 51.3627 8.61298 53.0737C9.16564 54.7847 10.9921 55.721 12.6924 55.1648Z" fill="#EAEEF9"/>
<path d="M217.487 49.3451C218.729 48.2028 218.816 46.2634 217.681 45.0133C216.546 43.7633 214.618 43.676 213.376 44.8183C212.134 45.9607 212.047 47.9001 213.182 49.1501C214.318 50.4002 216.245 50.4875 217.487 49.3451Z" fill="#EAEEF9"/>
<path d="M144.619 4.53662C145.473 3.7509 145.533 2.41696 144.752 1.55717C143.971 0.697384 142.646 0.637332 141.791 1.42305C140.937 2.20876 140.877 3.5427 141.658 4.40249C142.439 5.26228 143.764 5.32233 144.619 4.53662Z" fill="#EAEEF9"/>
<path d="M13.8198 48.7901L35.771 26.7189C36.5045 25.9813 37.483 25.5693 38.501 25.5693C39.519 25.5693 40.4974 25.9813 41.231 26.7189L63.1821 48.7901L38.501 68.7623L13.8198 48.7901Z" fill="white" stroke="#D6DCE8" stroke-width="4.6" stroke-linecap="round" stroke-linejoin="round"/>
<path d="M22.4541 33.5137H54.5476C54.8896 33.5137 55.2176 33.6556 55.4594 33.9083C55.7013 34.161 55.8371 34.5037 55.8371 34.861V69.7413H21.1646V34.861C21.1646 34.6841 21.1979 34.5089 21.2627 34.3454C21.3275 34.1819 21.4225 34.0334 21.5422 33.9083C21.662 33.7832 21.8041 33.6839 21.9606 33.6162C22.117 33.5485 22.2847 33.5137 22.4541 33.5137Z" fill="white" stroke="#D6DCE8" stroke-width="4.6" stroke-linecap="round" stroke-linejoin="round"/>
<path d="M50.6604 61.7725H26.3416C25.927 61.7725 25.5908 62.1237 25.5908 62.5569C25.5908 62.9902 25.927 63.3414 26.3416 63.3414H50.6604C51.0751 63.3414 51.4112 62.9902 51.4112 62.5569C51.4112 62.1237 51.0751 61.7725 50.6604 61.7725Z" fill="#F4F6FA"/>
<path d="M13.8198 75.7233V48.79L61.5078 79.108C60.7637 79.7428 59.8323 80.0889 58.8716 80.0875H17.9967C16.8889 80.0875 15.8265 79.6277 15.0432 78.8092C14.2599 77.9908 13.8198 76.8807 13.8198 75.7233Z" fill="white" stroke="#D6DCE8" stroke-width="4.6" stroke-linecap="round" stroke-linejoin="round"/>
<path d="M63.1821 75.7233V48.79L15.4941 79.108C16.2382 79.7428 17.1697 80.0889 18.1303 80.0875H59.0052C60.113 80.0875 61.1754 79.6277 61.9587 78.8092C62.742 77.9908 63.1821 76.8807 63.1821 75.7233Z" fill="white" stroke="#D6DCE8" stroke-width="4.6" stroke-linecap="round" stroke-linejoin="round"/>
<path d="M165.211 189.668C165.211 199.066 157.864 206.529 149.205 206.529H71.5352C62.6137 206.529 55.2666 198.79 55.2666 189.668V26.5812C55.2666 17.183 62.6137 9.71973 71.5352 9.71973H149.205C158.126 9.71973 165.211 17.4594 165.211 26.5812V189.668Z" fill="#1DA1FA" stroke="#D6DCE8" stroke-width="3.43225" stroke-miterlimit="10"/>
<path d="M156.814 165.067C156.814 170.319 152.878 174.188 148.155 174.188H73.1093C68.1238 174.188 64.4502 170.042 64.4502 165.067V29.6218C64.4502 24.3699 68.3862 20.5 73.1093 20.5H148.155C153.14 20.5 156.814 24.6463 156.814 29.6218V165.067Z" fill="#F1F3F9" stroke="#D6DCE8" stroke-width="3.39467" stroke-miterlimit="10"/>
<path d="M110.37 198.79C114.862 198.79 118.504 194.954 118.504 190.221C118.504 185.489 114.862 181.652 110.37 181.652C105.877 181.652 102.235 185.489 102.235 190.221C102.235 194.954 105.877 198.79 110.37 198.79Z" fill="white" stroke="#D6DCE8" stroke-width="3.43225" stroke-miterlimit="10"/>
<path d="M138.185 111.442V139.913C138.185 144.059 134.773 147.376 131.1 147.376H18.7939C14.5955 147.376 11.4468 143.783 11.4468 139.36V111.166C11.4468 106.743 14.8579 103.149 18.7939 103.149H130.575C134.511 103.426 138.185 106.743 138.185 111.442Z" fill="white" stroke="#D6DCE8" stroke-width="3.43225" stroke-miterlimit="10"/>
<path d="M122.441 120.011C122.441 120.563 122.178 121.116 121.391 121.116H63.6638C63.1391 121.116 62.6143 120.563 62.6143 120.011V116.417C62.6143 115.864 63.1391 115.312 63.6638 115.312H121.654C122.178 115.312 122.703 115.864 122.703 116.417V120.011H122.441Z" fill="#F1F3F9" stroke="#D6DCE8" stroke-width="3.43225" stroke-miterlimit="10"/>
<path d="M99.0874 136.043H63.6638C63.1391 136.043 62.6143 135.49 62.6143 134.937V131.62C62.6143 131.067 63.1391 130.515 63.6638 130.515H99.0874C99.6122 130.515 100.137 131.067 100.137 131.62V135.214C100.399 135.767 99.8746 136.043 99.0874 136.043Z" fill="#F1F3F9" stroke="#D6DCE8" stroke-width="3.43225" stroke-miterlimit="10"/>
<path d="M202.209 73.0195C202.209 76.8894 199.322 79.93 195.386 79.93H92.7893C88.8533 79.93 85.7046 76.613 85.7046 72.4667V48.1419C85.7046 44.272 88.591 41.2314 92.5269 41.2314H195.649C199.322 41.2314 202.471 44.272 202.471 48.1419L202.209 73.0195Z" fill="white" stroke="#D6DCE8" stroke-width="3.43225" stroke-miterlimit="10"/>
<path d="M150.255 56.9872H99.0872C98.5624 56.9872 98.0376 56.7108 98.0376 56.158V52.841C98.0376 52.5646 98.5624 52.0117 99.0872 52.0117H150.255C150.517 52.0117 151.304 52.2881 151.304 52.841V56.158C151.304 56.7108 150.779 56.9872 150.255 56.9872Z" fill="#F1F3F9" stroke="#D6DCE8" stroke-width="3.43225" stroke-miterlimit="10"/>
<path d="M130.575 70.2558H99.0872C98.5624 70.2558 98.0376 69.9794 98.0376 69.4265V66.1095C98.0376 65.8331 98.5624 65.2803 99.0872 65.2803H130.575C130.837 65.2803 131.624 65.5567 131.624 66.1095V69.4265C131.362 69.703 131.1 70.2558 130.575 70.2558Z" fill="#F1F3F9" stroke="#D6DCE8" stroke-width="3.43225" stroke-miterlimit="10"/>
<path d="M208.769 59.4754C208.769 66.3859 205.883 72.4671 201.947 77.4426C201.684 77.719 201.159 78.2719 200.897 78.5483C196.436 82.971 190.401 85.4587 184.104 85.4587C179.118 85.4587 174.133 83.8002 169.934 81.0361C168.885 80.2068 167.835 79.1011 166.523 78.2719C162.062 73.8492 158.914 67.2151 158.914 59.7519C158.914 45.3781 169.934 33.7686 183.579 33.7686C197.486 33.7686 208.769 45.3781 208.769 59.4754Z" fill="#E9F0F8"/>
<path d="M208.769 59.4754C208.769 67.2151 205.62 73.8491 200.635 78.8247C196.174 83.2474 190.139 85.7351 183.841 85.7351C178.856 85.7351 173.87 84.0766 169.672 81.3124C163.112 76.8897 158.914 68.8736 158.914 60.0282C158.914 45.6545 169.934 34.0449 183.579 34.0449C197.486 34.0449 208.769 45.3781 208.769 59.4754Z" fill="#F1F3F9" stroke="black" stroke-width="3.43225" stroke-miterlimit="10"/>
<path d="M51.0682 126.646C51.0682 134.109 48.1819 140.743 43.1963 145.442C41.8843 146.824 40.3099 147.653 38.7356 148.759C35.3244 150.97 30.8637 152.076 26.4029 152.076C21.9422 152.076 17.7438 150.97 14.0703 149.036C13.2831 148.759 13.0207 148.206 12.4959 147.93C6.19835 143.507 2 135.491 2 126.922C2 112.548 13.0207 101.492 26.4029 101.492C40.3099 100.939 51.0682 112.548 51.0682 126.646Z" fill="#F1F3F9" stroke="black" stroke-width="3.43225" stroke-miterlimit="10"/>
<g filter="url(#filter0_d_350_17671)">
<path d="M149.978 102.668C149.978 106.726 149.302 110.446 147.78 113.997C144.398 122.79 137.127 129.553 128.165 132.597C125.122 133.611 121.909 134.119 118.527 134.119C101.111 134.119 87.0762 120.084 87.0762 102.668C87.0762 85.2514 101.111 71.2168 118.527 71.2168C135.944 71.2168 149.978 85.4205 149.978 102.668Z" fill="#1DA1FA" stroke="#AAB2C5" stroke-width="2.33498" stroke-miterlimit="10"/>
<path d="M121.153 98.1556V92.1208C121.153 88.829 118.483 86.0859 115.278 86.0859C113.675 86.0859 112.251 86.8174 111.004 87.9147C109.936 89.0119 109.224 90.4749 109.224 92.3036V98.3385C107.621 99.4357 106.375 100.716 105.306 102.545C104.416 104.19 103.882 106.202 103.882 108.214C103.882 114.614 108.867 119.735 115.099 119.735C121.332 119.735 126.317 114.614 126.317 108.214C126.495 103.825 124.358 100.167 121.153 98.1556ZM116.524 109.311V112.42C116.524 112.785 116.168 113.151 115.812 113.151H114.565C114.209 113.151 113.853 112.785 113.853 112.42V110.408V109.311C112.785 108.762 112.251 107.482 112.429 106.202C112.607 105.105 113.497 104.19 114.565 104.008C116.346 103.642 117.948 105.105 117.948 106.751C117.948 107.848 117.414 108.762 116.524 109.311ZM118.305 96.8755C117.236 96.5097 116.346 96.3269 115.099 96.3269C114.031 96.3269 112.963 96.5097 111.894 96.8755V92.3036C111.894 91.3893 112.251 90.4749 112.785 89.9263C113.319 89.3777 114.209 89.0119 115.099 89.0119C116.88 89.0119 118.305 90.4749 118.305 92.3036V96.8755Z" fill="white" stroke="black" stroke-width="2.33498" stroke-miterlimit="10"/>
</g>
<defs>
<filter id="filter0_d_350_17671" x="62.5589" y="51.369" width="111.936" height="111.937" filterUnits="userSpaceOnUse" color-interpolation-filters="sRGB">
<feFlood flood-opacity="0" result="BackgroundImageFix"/>
<feColorMatrix in="SourceAlpha" type="matrix" values="0 0 0 0 0 0 0 0 0 0 0 0 0 0 0 0 0 0 127 0" result="hardAlpha"/>
<feOffset dy="4.66995"/>
<feGaussianBlur stdDeviation="11.6749"/>
<feComposite in2="hardAlpha" operator="out"/>
<feColorMatrix type="matrix" values="0 0 0 0 0.168627 0 0 0 0 0.152941 0 0 0 0 0.188235 0 0 0 0.18 0"/>
<feBlend mode="normal" in2="BackgroundImageFix" result="effect1_dropShadow_350_17671"/>
<feBlend mode="normal" in="SourceGraphic" in2="effect1_dropShadow_350_17671" result="shape"/>
</filter>
</defs>
</svg>
