<svg width="31" height="30" viewBox="0 0 31 30" fill="none" xmlns="http://www.w3.org/2000/svg">
<path d="M15.3864 4.95508C16.6884 4.95508 17.937 5.47228 18.8577 6.39292C19.7783 7.31355 20.2955 8.5622 20.2955 9.86417C20.2955 11.1661 19.7783 12.4148 18.8577 13.3354C17.937 14.2561 16.6884 14.7733 15.3864 14.7733C14.0844 14.7733 12.8358 14.2561 11.9152 13.3354C10.9945 12.4148 10.4773 11.1661 10.4773 9.86417C10.4773 8.5622 10.9945 7.31355 11.9152 6.39292C12.8358 5.47228 14.0844 4.95508 15.3864 4.95508ZM15.3864 7.40962C14.7354 7.40962 14.1111 7.66823 13.6508 8.12854C13.1905 8.58886 12.9319 9.21318 12.9319 9.86417C12.9319 10.5152 13.1905 11.1395 13.6508 11.5998C14.1111 12.0601 14.7354 12.3187 15.3864 12.3187C16.0374 12.3187 16.6617 12.0601 17.122 11.5998C17.5824 11.1395 17.841 10.5152 17.841 9.86417C17.841 9.21318 17.5824 8.58886 17.122 8.12854C16.6617 7.66823 16.0374 7.40962 15.3864 7.40962ZM15.3864 16.0005C18.6632 16.0005 25.2046 17.6328 25.2046 20.9096V24.5914H5.56824V20.9096C5.56824 17.6328 12.1096 16.0005 15.3864 16.0005ZM15.3864 18.3324C11.7414 18.3324 7.90006 20.1242 7.90006 20.9096V22.2596H22.8728V20.9096C22.8728 20.1242 19.0314 18.3324 15.3864 18.3324Z" fill="#333333"/>
</svg>
