<svg width="27" height="28" viewBox="0 0 27 28" fill="none" xmlns="http://www.w3.org/2000/svg">
<path d="M15.5102 12.3615L14.3482 11.8243C13.9207 11.627 13.9207 11.0241 14.3482 10.8268L15.5102 10.2897L16.0473 9.13863C16.2446 8.71111 16.8475 8.71111 17.0449 9.13863L17.582 10.3006L18.733 10.8378C19.1605 11.0351 19.1605 11.638 18.733 11.8353L17.571 12.3725L17.0339 13.5235C16.8366 13.951 16.2337 13.951 16.0364 13.5235L15.5102 12.3615ZM4.97559 15.7159L5.51274 14.5539L6.67472 14.0168C7.10224 13.8195 7.10224 13.2165 6.67472 13.0192L5.51274 12.4821L4.97559 11.3311C4.78924 10.9035 4.17536 10.9035 3.989 11.3311L3.45186 12.493L2.28988 13.0302C1.86236 13.2275 1.86236 13.8304 2.28988 14.0277L3.45186 14.5649L3.989 15.7159C4.17536 16.1434 4.78924 16.1434 4.97559 15.7159ZM9.9195 10.2239L10.6101 8.68919L12.1448 7.99858C12.5723 7.80126 12.5723 7.19834 12.1448 7.00103L10.6101 6.31041L9.9195 4.77572C9.72218 4.3482 9.11927 4.3482 8.92195 4.77572L8.23134 6.31041L6.69664 7.00103C6.26912 7.19834 6.26912 7.80126 6.69664 7.99858L8.23134 8.68919L8.92195 10.2239C9.10831 10.6514 9.72218 10.6514 9.9195 10.2239ZM24.5868 10.5308C24.1483 10.0923 23.4138 10.1033 22.9973 10.5747L15.9925 18.4455L12.386 14.8389C11.9585 14.4114 11.2678 14.4114 10.8403 14.8389L4.21921 21.471C3.76976 21.9204 3.76976 22.6659 4.21921 23.1153C4.66866 23.5648 5.41408 23.5648 5.86352 23.1153L11.6186 17.3492L15.1813 20.9119C15.6308 21.3614 16.3543 21.3395 16.7708 20.8681L24.6306 12.0217C25.0143 11.5941 24.9924 10.9364 24.5868 10.5308Z" fill="#373F5E"/>
</svg>
