<svg width="27" height="27" viewBox="0 0 27 27" fill="none" xmlns="http://www.w3.org/2000/svg">
<path d="M11.9573 3.48809L7.8794 10.1531C7.42996 10.8765 7.95614 11.8193 8.81118 11.8193H16.956C17.8111 11.8193 18.3372 10.8765 17.8878 10.1531L13.8209 3.48809C13.3933 2.78652 12.3848 2.78652 11.9573 3.48809Z" fill="#373F5E"/>
<path d="M18.9182 23.8776C21.6426 23.8776 23.8512 21.669 23.8512 18.9447C23.8512 16.2203 21.6426 14.0117 18.9182 14.0117C16.1938 14.0117 13.9853 16.2203 13.9853 18.9447C13.9853 21.669 16.1938 23.8776 18.9182 23.8776Z" fill="#373F5E"/>
<path d="M4.1194 23.3295H10.6967C11.2996 23.3295 11.7929 22.8362 11.7929 22.2333V15.656C11.7929 15.0531 11.2996 14.5598 10.6967 14.5598H4.1194C3.51649 14.5598 3.02319 15.0531 3.02319 15.656V22.2333C3.02319 22.8362 3.51649 23.3295 4.1194 23.3295Z" fill="#373F5E"/>
</svg>
