<svg width="27" height="28" viewBox="0 0 27 28" fill="none" xmlns="http://www.w3.org/2000/svg">
<path d="M12.4321 4.21726V23.5544C12.4321 24.256 11.7853 24.7822 11.1056 24.6287C6.20558 23.5325 2.56616 19.1367 2.56616 13.8858C2.56616 8.63499 6.20558 4.23919 11.1056 3.14298C11.7853 2.98951 12.4321 3.51569 12.4321 4.21726ZM14.6574 4.21726V11.6825C14.6574 12.2854 15.1507 12.7787 15.7536 12.7787H23.1968C23.8984 12.7787 24.4246 12.1319 24.2711 11.4413C23.3393 7.31954 20.1055 4.07476 15.9947 3.14298C15.3041 2.98951 14.6574 3.51569 14.6574 4.21726ZM14.6574 16.0892V23.5544C14.6574 24.256 15.3041 24.7822 15.9947 24.6287C20.1165 23.6969 23.3503 20.4412 24.2821 16.3194C24.4355 15.6398 23.8984 14.982 23.2078 14.982H15.7645C15.1507 14.993 14.6574 15.4863 14.6574 16.0892Z" fill="#373F5E"/>
</svg>
