<svg width="30" height="30" viewBox="0 0 30 30" fill="none" xmlns="http://www.w3.org/2000/svg">
<rect width="30" height="30" rx="15" fill="#E0E0E0" fill-opacity="0.5"/>
<path d="M17.8571 15.6428V18.6428C17.8571 21.1428 16.8571 22.1428 14.3571 22.1428H11.3571C8.85706 22.1428 7.85706 21.1428 7.85706 18.6428V15.6428C7.85706 13.1428 8.85706 12.1428 11.3571 12.1428H14.3571C16.8571 12.1428 17.8571 13.1428 17.8571 15.6428Z" stroke="#F9F9F9" stroke-width="1.07143" stroke-linecap="round" stroke-linejoin="round"/>
<path d="M22.1427 11.3571V14.3571C22.1427 16.8571 21.1427 17.8571 18.6427 17.8571H17.857V15.6428C17.857 13.1428 16.857 12.1428 14.357 12.1428H12.1427V11.3571C12.1427 8.85712 13.1427 7.85712 15.6427 7.85712H18.6427C21.1427 7.85712 22.1427 8.85712 22.1427 11.3571Z" stroke="#F9F9F9" stroke-width="1.07143" stroke-linecap="round" stroke-linejoin="round"/>
</svg>
