<svg width="260" height="132" viewBox="0 0 260 132" fill="none" xmlns="http://www.w3.org/2000/svg">
<g clip-path="url(#clip0_887_4943)">
<path fill-rule="evenodd" clip-rule="evenodd" d="M207.658 55.6109C207.508 55.2844 207.374 54.958 207.256 54.6274C207.077 54.1316 206.967 53.6136 206.816 53.1105C206.752 52.8971 206.576 52.3431 206.564 52.2596C206.47 51.5313 207.009 51.2717 207.17 51.208C207.247 51.175 208.047 50.8619 208.469 51.7286C208.987 52.7881 209.359 53.895 209.577 55.0183C210.008 55.9075 210.567 56.7585 211.2 57.4947C213.72 60.4225 216.892 59.9224 220.226 58.9961C220.738 58.8507 221.273 59.1397 221.437 59.6435C221.602 60.1511 221.339 60.6992 220.839 60.8825C219.019 61.5636 216.106 63.9502 215.378 65.8171C215.226 66.2079 215.297 67.0328 215.32 67.8544C215.35 68.9953 215.328 70.1377 215.104 70.6753C215.071 70.7582 214.634 71.6328 214.476 71.7866C214.093 72.1527 213.695 72.1068 213.456 72.0308C213.217 71.9548 212.918 71.7593 212.711 71.3576C212.495 70.9378 212.332 70.0016 212.264 69.8096C212.019 69.1135 211.503 67.757 210.892 66.6361C210.563 66.0325 210.237 65.4817 209.881 65.2598C208.567 64.4385 206.977 65.0374 205.651 65.5864C205.498 65.6479 205.346 65.7133 205.194 65.7747C204.678 66.0899 204.117 66.372 203.508 66.6133C202.59 66.9789 202.2 66.1486 202.176 66.0932C202.124 65.9712 201.884 65.3357 202.529 64.8829C202.6 64.8351 203.141 64.5541 203.349 64.4447C203.64 64.2928 203.938 64.1554 204.238 64.0214C207.206 62.1472 208.207 58.8482 207.658 55.6109ZM209.705 58.8053C211.605 61.0057 213.787 61.7303 216.134 61.6943L216.134 61.6944C214.954 62.7807 213.945 64.0144 213.525 65.0946C213.366 65.5039 213.319 66.2533 213.319 67.0812C213.013 66.393 212.656 65.6692 212.281 65.0699C211.852 64.3858 211.379 63.8498 210.936 63.573C210.083 63.0399 209.145 62.8672 208.197 62.911C209.014 61.6751 209.509 60.2741 209.705 58.8053Z" fill="#1DA1FA"/>
</g>
<g clip-path="url(#clip1_887_4943)">
<path fill-rule="evenodd" clip-rule="evenodd" d="M183.591 9.97511C183.517 9.81301 183.45 9.65094 183.391 9.48682C183.303 9.24065 183.248 8.98346 183.173 8.73367C183.141 8.62772 183.053 8.35265 183.048 8.31121C183.001 7.94962 183.269 7.82072 183.348 7.7891C183.387 7.77269 183.784 7.61725 183.994 8.04757C184.251 8.57362 184.435 9.1232 184.544 9.68092C184.758 10.1224 185.035 10.5449 185.349 10.9104C186.6 12.3641 188.176 12.1158 189.831 11.6559C190.085 11.5837 190.351 11.7272 190.432 11.9773C190.514 12.2293 190.383 12.5015 190.135 12.5925C189.232 12.9307 187.785 14.1156 187.424 15.0425C187.348 15.2365 187.384 15.6461 187.395 16.054C187.41 16.6205 187.399 17.1877 187.288 17.4546C187.271 17.4958 187.055 17.93 186.976 18.0064C186.786 18.1881 186.588 18.1653 186.47 18.1276C186.351 18.0899 186.202 17.9928 186.1 17.7934C185.993 17.5849 185.911 17.1201 185.878 17.0248C185.756 16.6792 185.5 16.0057 185.197 15.4491C185.033 15.1495 184.871 14.876 184.695 14.7658C184.042 14.358 183.253 14.6554 182.594 14.928C182.518 14.9585 182.443 14.991 182.367 15.0214C182.111 15.1779 181.833 15.318 181.531 15.4378C181.074 15.6194 180.881 15.2071 180.869 15.1796C180.843 15.119 180.724 14.8035 181.044 14.5787C181.079 14.5549 181.348 14.4154 181.452 14.3611C181.596 14.2857 181.744 14.2175 181.893 14.151C183.367 13.2204 183.864 11.5825 183.591 9.97511ZM184.607 11.5612C185.55 12.6537 186.634 13.0134 187.799 12.9955L187.799 12.9956C187.213 13.535 186.713 14.1475 186.504 14.6838C186.425 14.887 186.402 15.2591 186.401 15.6701C186.25 15.3284 186.073 14.9691 185.886 14.6715C185.673 14.3319 185.438 14.0657 185.219 13.9283C184.795 13.6636 184.329 13.5779 183.859 13.5996C184.264 12.986 184.51 12.2904 184.607 11.5612Z" fill="#AB92F0"/>
</g>
<g clip-path="url(#clip2_887_4943)">
<path fill-rule="evenodd" clip-rule="evenodd" d="M68.9865 68.3381C68.922 68.197 68.8641 68.0559 68.8128 67.913C68.7358 67.6987 68.6879 67.4748 68.6227 67.2573C68.595 67.1651 68.5189 66.9256 68.514 66.8895C68.4733 66.5747 68.7061 66.4625 68.7756 66.435C68.809 66.4207 69.1547 66.2853 69.3375 66.66C69.5613 67.118 69.7219 67.5965 69.8162 68.082C70.0027 68.4664 70.244 68.8342 70.5178 69.1524C71.607 70.418 72.9783 70.2019 74.4196 69.8015C74.6409 69.7386 74.8721 69.8635 74.9429 70.0813C75.0142 70.3007 74.9004 70.5377 74.6845 70.6169C73.8978 70.9113 72.6385 71.9429 72.3238 72.7499C72.258 72.9188 72.2889 73.2754 72.2987 73.6306C72.3115 74.1238 72.302 74.6176 72.2053 74.8499C72.1911 74.8858 72.0024 75.2639 71.9337 75.3303C71.7682 75.4886 71.5965 75.4687 71.4932 75.4359C71.3899 75.4031 71.2603 75.3185 71.171 75.1449C71.0777 74.9634 71.007 74.5587 70.9778 74.4758C70.8719 74.1749 70.649 73.5885 70.3847 73.1039C70.2424 72.8431 70.1013 72.605 69.9478 72.509C69.3796 72.154 68.6925 72.4129 68.119 72.6502C68.053 72.6768 67.9874 72.7051 67.9216 72.7316C67.6987 72.8678 67.4561 72.9898 67.193 73.0941C66.7959 73.2522 66.6274 72.8932 66.6171 72.8693C66.5948 72.8165 66.4907 72.5418 66.7695 72.3461C66.8001 72.3254 67.0342 72.204 67.1243 72.1567C67.2498 72.091 67.3786 72.0316 67.5083 71.9737C68.7915 71.1636 69.2243 69.7375 68.9865 68.3381ZM69.8715 69.719C70.6927 70.6701 71.6361 70.9834 72.6508 70.9678L72.6506 70.9678C72.1403 71.4374 71.7046 71.9707 71.523 72.4376C71.454 72.6145 71.434 72.9385 71.4336 73.2964C71.3017 72.9989 71.1474 72.686 70.9849 72.4269C70.7998 72.1312 70.5951 71.8995 70.4039 71.7799C70.035 71.5495 69.6294 71.4748 69.2199 71.4937C69.573 70.9595 69.7871 70.3539 69.8715 69.719Z" fill="black"/>
</g>
<g clip-path="url(#clip3_887_4943)">
<path fill-rule="evenodd" clip-rule="evenodd" d="M43.9865 34.3381C43.922 34.197 43.8641 34.0559 43.8128 33.913C43.7358 33.6987 43.6879 33.4748 43.6227 33.2573C43.595 33.1651 43.5189 32.9256 43.514 32.8895C43.4733 32.5747 43.7061 32.4625 43.7756 32.435C43.809 32.4207 44.1547 32.2853 44.3375 32.66C44.5613 33.118 44.7219 33.5965 44.8162 34.082C45.0027 34.4664 45.244 34.8342 45.5178 35.1524C46.607 36.418 47.9783 36.2019 49.4196 35.8015C49.6409 35.7386 49.8721 35.8635 49.9429 36.0813C50.0142 36.3007 49.9004 36.5377 49.6845 36.6169C48.8978 36.9113 47.6385 37.9429 47.3238 38.7499C47.258 38.9188 47.2889 39.2754 47.2987 39.6306C47.3115 40.1238 47.302 40.6176 47.2053 40.8499C47.1911 40.8858 47.0024 41.2639 46.9337 41.3303C46.7682 41.4886 46.5965 41.4687 46.4932 41.4359C46.3899 41.4031 46.2603 41.3185 46.171 41.1449C46.0777 40.9634 46.007 40.5587 45.9778 40.4758C45.8719 40.1749 45.649 39.5885 45.3847 39.1039C45.2424 38.8431 45.1013 38.605 44.9478 38.509C44.3796 38.154 43.6925 38.4129 43.119 38.6502C43.053 38.6768 42.9874 38.7051 42.9216 38.7316C42.6987 38.8678 42.4561 38.9898 42.193 39.0941C41.7959 39.2522 41.6274 38.8932 41.6171 38.8693C41.5948 38.8165 41.4907 38.5418 41.7695 38.3461C41.8001 38.3254 42.0342 38.204 42.1243 38.1567C42.2498 38.091 42.3786 38.0316 42.5083 37.9737C43.7915 37.1636 44.2243 35.7375 43.9865 34.3381ZM44.8715 35.719C45.6927 36.6701 46.6361 36.9834 47.6508 36.9678L47.6506 36.9678C47.1403 37.4374 46.7046 37.9707 46.523 38.4376C46.454 38.6145 46.434 38.9385 46.4336 39.2964C46.3017 38.9989 46.1474 38.686 45.9849 38.4269C45.7998 38.1312 45.5951 37.8995 45.4039 37.7799C45.035 37.5495 44.6294 37.4748 44.2199 37.4937C44.573 36.9595 44.7871 36.3539 44.8715 35.719Z" fill="#4ADE80"/>
</g>
<g clip-path="url(#clip4_887_4943)">
<path fill-rule="evenodd" clip-rule="evenodd" d="M4.98653 83.3381C4.92201 83.197 4.86409 83.0559 4.81281 82.913C4.7358 82.6987 4.68791 82.4748 4.6227 82.2573C4.59495 82.1651 4.51886 81.9256 4.514 81.8895C4.47325 81.5747 4.70608 81.4625 4.77559 81.435C4.80897 81.4207 5.15468 81.2853 5.33748 81.66C5.56129 82.118 5.7219 82.5965 5.81623 83.082C6.00269 83.4664 6.24401 83.8342 6.51778 84.1524C7.60696 85.418 8.97832 85.2019 10.4196 84.8015C10.6409 84.7386 10.8721 84.8635 10.9429 85.0813C11.0142 85.3007 10.9004 85.5377 10.6845 85.6169C9.89784 85.9113 8.63852 86.9429 8.3238 87.7499C8.25799 87.9188 8.28893 88.2754 8.29866 88.6306C8.31155 89.1238 8.302 89.6176 8.20532 89.8499C8.19108 89.8858 8.00243 90.2639 7.93373 90.3303C7.76824 90.4886 7.5965 90.4687 7.49319 90.4359C7.38987 90.4031 7.26025 90.3185 7.171 90.1449C7.0777 89.9634 7.007 89.5587 6.97783 89.4758C6.87192 89.1749 6.64895 88.5885 6.38474 88.1039C6.24239 87.8431 6.10134 87.605 5.94784 87.509C5.3796 87.154 4.6925 87.4129 4.11904 87.6502C4.05302 87.6768 3.98743 87.7051 3.92157 87.7316C3.69874 87.8678 3.45606 87.9898 3.19299 88.0941C2.79587 88.2522 2.62744 87.8932 2.61711 87.8693C2.59478 87.8165 2.49074 87.5418 2.76953 87.3461C2.80013 87.3254 3.03422 87.204 3.12426 87.1567C3.24977 87.091 3.37855 87.0316 3.50828 86.9737C4.7915 86.1636 5.22426 84.7375 4.98653 83.3381ZM5.87146 84.719C6.6927 85.6701 7.63615 85.9834 8.65081 85.9678L8.65065 85.9678C8.14033 86.4374 7.70456 86.9707 7.52299 87.4376C7.45398 87.6145 7.43399 87.9385 7.43359 88.2964C7.30172 87.9989 7.1474 87.686 6.9849 87.4269C6.79976 87.1312 6.5951 86.8995 6.40391 86.7799C6.03495 86.5495 5.62941 86.4748 5.21994 86.4937C5.57303 85.9595 5.78706 85.3539 5.87146 84.719Z" fill="#FC1111"/>
</g>
<g clip-path="url(#clip5_887_4943)">
<path fill-rule="evenodd" clip-rule="evenodd" d="M252.485 76.9379C252.429 76.8137 252.378 76.6895 252.332 76.5638C252.265 76.3752 252.223 76.1781 252.165 75.9868C252.141 75.9056 252.074 75.6948 252.07 75.6631C252.034 75.3861 252.239 75.2873 252.3 75.2631C252.329 75.2505 252.633 75.1314 252.794 75.4611C252.991 75.8641 253.132 76.2852 253.215 76.7125C253.38 77.0507 253.592 77.3744 253.833 77.6544C254.791 78.7682 255.998 78.5779 257.266 78.2256C257.461 78.1703 257.665 78.2802 257.727 78.4718C257.79 78.6649 257.689 78.8734 257.5 78.9431C256.807 79.2022 255.699 80.1101 255.422 80.8202C255.364 80.9689 255.391 81.2827 255.4 81.5952C255.411 82.0292 255.403 82.4637 255.318 82.6682C255.305 82.6998 255.139 83.0325 255.079 83.0909C254.933 83.2302 254.782 83.2127 254.691 83.1838C254.6 83.155 254.486 83.0806 254.408 82.9278C254.326 82.7681 254.263 82.4119 254.238 82.3389C254.144 82.0741 253.948 81.5581 253.716 81.1317C253.59 80.9022 253.466 80.6926 253.331 80.6082C252.831 80.2958 252.227 80.5236 251.722 80.7325C251.664 80.7559 251.606 80.7807 251.548 80.8041C251.352 80.924 251.139 81.0313 250.907 81.1231C250.558 81.2622 250.409 80.9463 250.4 80.9253C250.381 80.8788 250.289 80.6371 250.534 80.4649C250.561 80.4467 250.767 80.3398 250.847 80.2982C250.957 80.2404 251.07 80.1881 251.184 80.1372C252.314 79.4242 252.695 78.1693 252.485 76.9379ZM253.264 78.153C253.987 78.99 254.817 79.2656 255.71 79.2519L255.71 79.252C255.261 79.6652 254.877 80.1345 254.717 80.5454C254.657 80.7011 254.639 80.9862 254.639 81.3011C254.523 81.0393 254.387 80.7639 254.244 80.536C254.081 80.2758 253.901 80.0719 253.733 79.9666C253.408 79.7638 253.051 79.6981 252.691 79.7148C253.001 79.2446 253.19 78.7117 253.264 78.153Z" fill="white"/>
</g>
<circle cx="100.812" cy="36" r="2.5" stroke="white"/>
<circle opacity="0.5" cx="119.812" cy="2" r="1.5" stroke="white"/>
<circle opacity="0.2" cx="129.812" cy="86.5" r="45.5" fill="#1DA1FA"/>
<circle cx="129.811" cy="86.5003" r="30.3333" fill="#1DA1FA"/>
<path d="M141.019 78.0602C140.654 78.0711 140.308 78.2235 140.053 78.4853L125.599 92.9399L120.974 88.3156C120.845 88.1808 120.69 88.0732 120.518 87.9991C120.347 87.9249 120.162 87.8858 119.975 87.8839C119.789 87.882 119.603 87.9174 119.43 87.988C119.257 88.0586 119.1 88.163 118.968 88.2952C118.836 88.4273 118.731 88.5844 118.661 88.7574C118.59 88.9304 118.555 89.1157 118.557 89.3025C118.559 89.4894 118.598 89.674 118.672 89.8455C118.746 90.017 118.854 90.172 118.988 90.3014L124.606 95.9186C124.869 96.1819 125.226 96.3298 125.599 96.3298C125.971 96.3298 126.328 96.1819 126.591 95.9186L142.039 80.4711C142.242 80.2739 142.381 80.0199 142.437 79.7425C142.493 79.4651 142.464 79.1773 142.353 78.9167C142.243 78.656 142.057 78.4348 141.819 78.282C141.58 78.1291 141.302 78.0518 141.019 78.0602Z" fill="white"/>
<defs>
<clipPath id="clip0_887_4943">
<rect width="22.2734" height="22.2734" fill="white" transform="translate(198 53.6543) rotate(-15)"/>
</clipPath>
<clipPath id="clip1_887_4943">
<rect width="11.0587" height="11.0587" fill="white" transform="translate(178.795 9.00391) rotate(-15)"/>
</clipPath>
<clipPath id="clip2_887_4943">
<rect width="9.62799" height="9.62799" fill="white" transform="translate(64.8115 67.4922) rotate(-15)"/>
</clipPath>
<clipPath id="clip3_887_4943">
<rect width="9.62799" height="9.62799" fill="white" transform="translate(39.8115 33.4922) rotate(-15)"/>
</clipPath>
<clipPath id="clip4_887_4943">
<rect width="9.62799" height="9.62799" fill="white" transform="translate(0.811523 82.4922) rotate(-15)"/>
</clipPath>
<clipPath id="clip5_887_4943">
<rect width="8.47256" height="8.47256" fill="white" transform="translate(248.812 76.1934) rotate(-15)"/>
</clipPath>
</defs>
</svg>
