<svg width="50" height="50" viewBox="0 0 50 50" fill="none" xmlns="http://www.w3.org/2000/svg">
<g opacity="0.3">
<path d="M14.3178 4.97448C12.9644 5.10727 11.6389 5.43986 10.3553 5.93186C9.07291 6.42405 7.8306 7.07373 6.63098 7.84934L6.5579 7.897L6.63031 7.85145C3.03253 10.1829 -0.262143 13.6645 -3.16799 17.9586L-3.16835 17.9597C-6.0676 22.2605 -8.56388 27.4 -10.3913 33.1019C-11.7837 37.4468 -12.6609 41.7226 -13.0507 45.7688C-13.4404 49.8152 -13.3429 53.6321 -12.7606 57.067L-12.7601 57.0696C-12.172 60.5025 -11.1042 63.5844 -9.41287 66.1298L-9.44578 66.0829L-9.41323 66.1309C-8.56514 67.4024 -7.55303 68.5424 -6.35568 69.4812C-5.15747 70.4212 -3.77451 71.15 -2.25012 71.5866L9.72384 75.024C11.2489 75.4628 12.8277 75.5842 14.3758 75.4326C15.7292 75.2998 17.0535 74.9667 18.3371 74.4749C19.621 73.9819 20.8618 73.333 22.0613 72.5577L22.0632 72.5557C25.6586 70.2236 28.9574 66.7446 31.861 62.4497L31.8749 62.4262C34.7682 58.1291 37.2604 52.9982 39.0861 47.3055L39.0865 47.3044C40.4774 42.9603 41.3545 38.6846 41.7444 34.6383C42.1341 30.5919 42.0354 26.7747 41.4541 23.34L41.4526 23.3373C40.8644 19.9044 39.7951 16.8233 38.1064 14.2774L38.1045 14.2757C37.2588 13.0048 36.2476 11.8663 35.049 10.9272L35.1221 10.9856L35.0493 10.9261C33.8506 9.98713 32.4667 9.25787 30.9414 8.82001L18.9675 5.38261C17.4432 4.94505 15.8655 4.82395 14.3178 4.97448ZM18.3335 69.407C17.8799 69.6569 17.4278 69.8819 16.9837 70.0704C15.9251 70.5159 14.9019 70.7846 13.9277 70.8802C12.9513 70.9752 12.024 70.8972 11.1289 70.6402L5.7007 69.0819C6.77853 68.6589 7.84693 68.1004 8.89682 67.4232C9.14669 67.2595 9.39622 67.0898 9.64654 66.9132L18.3335 69.407ZM24.5392 64.2573C24.2012 64.6369 23.8606 65.0085 23.5143 65.3593C22.7112 66.1773 21.8991 66.9096 21.0889 67.5577L12.0688 64.9683C13.1744 63.9716 14.2559 62.8462 15.3026 61.6057L24.5392 64.2573ZM29.6283 57.1352C28.5511 59.0004 27.4027 60.7112 26.209 62.2498L26.2547 62.1072L16.9985 59.45C17.3671 58.9513 17.73 58.4353 18.0885 57.9059C18.8272 56.8099 19.539 55.6482 20.2235 54.4353L29.6283 57.1352ZM34.1144 47.1996C33.1792 49.9213 32.0753 52.4787 30.8585 54.8469L21.4398 52.143C22.645 49.7559 23.7248 47.1915 24.6532 44.4835L34.1144 47.1996ZM36.712 36.3901C36.3342 39.0957 35.7392 41.9101 34.8831 44.7777L25.4343 42.0652C26.2847 39.2154 26.9051 36.4044 27.3069 33.6902L36.712 36.3901ZM37.1447 27.9311C37.194 28.8768 37.2088 29.8512 37.1864 30.855C37.1653 31.8238 37.1031 32.822 37.0145 33.8367L27.6211 31.1401C27.8224 29.1067 27.8922 27.1381 27.8388 25.2597L37.1447 27.9311ZM35.8914 20.6391C36.3425 22.0186 36.6807 23.5542 36.9011 25.2211L27.669 22.5708C27.5903 21.776 27.49 20.9977 27.3626 20.2456C27.2327 19.4928 27.0775 18.7641 26.9011 18.0582L35.8914 20.6391ZM29.5364 13.2036C30.4314 13.4606 31.2485 13.8832 32.004 14.4767C32.9821 15.2402 33.8586 16.3014 34.5996 17.628L26.0817 15.1827L26.0357 15.3264C25.5588 14.0939 24.9926 12.9599 24.3212 11.9502C24.2523 11.8473 24.1812 11.7472 24.1104 11.6461L29.5364 13.2036ZM20.028 11.0387C21.3482 12.0692 22.4833 13.6381 23.3474 15.6719C24.6457 18.7175 25.3144 22.7864 25.2103 27.4168C25.1102 32.047 24.2453 37.2385 22.5412 42.5558C19.9484 50.6577 15.8916 57.4946 11.5381 61.9211C9.3655 64.1354 7.12484 65.7415 5.00648 66.6321C3.94897 67.0779 2.92572 67.3465 1.95167 67.4422C0.975128 67.5372 0.0489968 67.4595 -0.844885 67.2029C-1.73877 66.9462 -2.55448 66.524 -3.31071 65.9315C-4.63126 64.8983 -5.76716 63.3318 -6.62853 61.2974C-7.92779 58.2503 -8.59767 54.1822 -8.49371 49.5518C-8.3923 44.9219 -7.52599 39.7297 -5.8222 34.4134C-3.23065 26.3111 0.826933 19.4758 5.17934 15.0489C7.35125 12.8331 9.59457 11.2267 11.7098 10.3375C12.7676 9.89073 13.7908 9.62211 14.7657 9.52787C15.7426 9.43176 16.6686 9.50947 17.5626 9.76612C18.4566 10.0228 19.2722 10.4452 20.028 11.0387Z" fill="#263238"/>
<path d="M11.0233 17.7124C9.32132 18.4305 7.61951 19.6663 5.99326 21.3256L5.99398 21.3233C2.74499 24.631 -0.188329 29.6038 -2.07767 35.4871L-2.08195 35.5039L-2.08297 35.5036C-3.3204 39.3682 -3.95385 43.1467 -4.02768 46.5489C-4.10151 49.9511 -3.62007 52.9707 -2.61638 55.3344L-2.61769 55.3305C-1.94861 56.909 -1.04743 58.1873 0.091771 59.0802C0.737574 59.5892 1.46864 59.9691 2.26036 60.1951C2.91132 60.382 3.60224 60.0276 3.80266 59.4023C4.00314 58.7767 3.63661 58.1189 2.98565 57.9321C2.51026 57.7944 2.08527 57.5781 1.66256 57.2482C0.929838 56.677 0.222364 55.7366 -0.327999 54.4311L-0.329303 54.4272C-1.16411 52.4788 -1.63339 49.7352 -1.55949 46.5805C-1.49261 43.4237 -0.898362 39.8463 0.27751 36.1812L0.296619 36.1216C2.07949 30.5626 4.87908 25.882 7.7854 22.9369L7.78765 22.9339C9.23603 21.4528 10.7138 20.4133 12.0042 19.8727C12.6515 19.5999 13.2505 19.4462 13.7944 19.3935C14.4735 19.3277 14.971 18.749 14.9074 18.0996C14.8438 17.4502 14.2426 16.9784 13.5638 17.0441C12.7247 17.1257 11.8735 17.3518 11.0233 17.7124Z" fill="#263238"/>
</g>
</svg>
