<svg width="45" height="31" viewBox="0 0 45 31" fill="none" xmlns="http://www.w3.org/2000/svg">
<path d="M44.0441 13.6685V25.7625C44.0441 26.7388 43.5908 27.6751 42.7838 28.3654C41.9768 29.0557 40.8823 29.4435 39.7411 29.4435H11.7713C10.6301 29.4435 9.53557 29.0557 8.72859 28.3654C7.92162 27.6751 7.46826 26.7388 7.46826 25.7625V23.0017M44.0441 13.6685V11.0384C44.0441 10.0622 43.5908 9.12589 42.7838 8.43557C41.9768 7.74524 40.8823 7.35742 39.7411 7.35742H37.5896M44.0441 13.6685H37.5896" stroke="#520A58" stroke-width="1.46697" stroke-linecap="round" stroke-linejoin="round"/>
<path d="M37.5896 7.35877V19.3221C37.5896 20.2983 37.1362 21.2346 36.3293 21.9249C35.5223 22.6153 34.4278 23.0031 33.2866 23.0031H5.31678C4.17554 23.0031 3.08104 22.6153 2.27406 21.9249C1.46709 21.2346 1.01373 20.2983 1.01373 19.3221V4.59801C1.01373 3.62174 1.46709 2.68546 2.27406 1.99514C3.08104 1.30481 4.17554 0.916992 5.31678 0.916992H33.2866C34.4278 0.916992 35.5223 1.30481 36.3293 1.99514C37.1362 2.68546 37.5896 3.62174 37.5896 4.59801V7.35877ZM37.5896 7.35877H8.54406" stroke="#520A58" stroke-width="1.46697" stroke-linecap="round" stroke-linejoin="round"/>
</svg>
