<svg width="48" height="48" viewBox="0 0 48 48" fill="none" xmlns="http://www.w3.org/2000/svg">
<path d="M23.6855 45.7872C35.568 45.7872 45.2007 36.1545 45.2007 24.272C45.2007 12.3895 35.568 2.75684 23.6855 2.75684C11.803 2.75684 2.17029 12.3895 2.17029 24.272C2.17029 36.1545 11.803 45.7872 23.6855 45.7872Z" stroke="#241772" stroke-width="3.79251" stroke-linecap="round" stroke-linejoin="round"/>
<path d="M23.6854 37.1815C30.8149 37.1815 36.5945 31.4019 36.5945 24.2724C36.5945 17.1429 30.8149 11.3633 23.6854 11.3633C16.5559 11.3633 10.7762 17.1429 10.7762 24.2724C10.7762 31.4019 16.5559 37.1815 23.6854 37.1815Z" stroke="#241772" stroke-width="3.79251" stroke-linecap="round" stroke-linejoin="round"/>
<path d="M23.6854 28.5768C26.0619 28.5768 27.9884 26.6502 27.9884 24.2737C27.9884 21.8972 26.0619 19.9707 23.6854 19.9707C21.3089 19.9707 19.3823 21.8972 19.3823 24.2737C19.3823 26.6502 21.3089 28.5768 23.6854 28.5768Z" stroke="#241772" stroke-width="3.79251" stroke-linecap="round" stroke-linejoin="round"/>
</svg>
