<svg width="46" height="46" viewBox="0 0 46 46" fill="none" xmlns="http://www.w3.org/2000/svg">
<path d="M1.44605 20.7935H15.7895M25.3514 23.1837L27.9574 26.1718L32.5243 20.1957M3.83624 11.2305H15.7895V35.137H3.83624C3.52226 35.137 3.21135 35.0751 2.92129 34.955C2.63122 34.8348 2.36768 34.6586 2.14571 34.4365C1.92375 34.2145 1.74771 33.9508 1.62766 33.6607C1.50761 33.3706 1.44589 33.0596 1.44605 32.7457V13.6218C1.44605 12.9878 1.69783 12.3797 2.14605 11.9313C2.59426 11.4829 3.20222 11.2308 3.83624 11.2305Z" stroke="#041737" stroke-width="2.29495" stroke-linecap="round" stroke-linejoin="round"/>
<path d="M44.4764 42.3091V4.05914C44.4764 3.42522 44.2246 2.81727 43.7763 2.36902C43.3281 1.92077 42.7201 1.66895 42.0862 1.66895H18.1797C17.5458 1.66895 16.9378 1.92077 16.4896 2.36902C16.0413 2.81727 15.7895 3.42522 15.7895 4.05914V42.3091C15.7895 42.9431 16.0413 43.551 16.4896 43.9993C16.9378 44.4475 17.5458 44.6993 18.1797 44.6993H42.0862C42.7201 44.6993 43.3281 44.4475 43.7763 43.9993C44.2246 43.551 44.4764 42.9431 44.4764 42.3091ZM26.5471 6.45048H33.7188L34.9145 1.66895H25.3514L26.5471 6.45048Z" stroke="#040E26" stroke-width="2.29495" stroke-linecap="round" stroke-linejoin="round"/>
</svg>
