<svg width="44" height="44" viewBox="0 0 44 44" fill="none" xmlns="http://www.w3.org/2000/svg">
<g clip-path="url(#clip0_367_11209)">
<path d="M27.4187 9.62127L22.8736 13.1417V0.207031H20.1842V13.1417L15.6526 9.62127L13.9717 11.6558L21.5289 17.5241L29.0996 11.6558L27.4187 9.62127Z" fill="#3A4705"/>
<path d="M28.333 0.426758L26.8404 2.59172L39.2789 10.6371L21.5289 22.11L3.77883 10.6371L16.2173 2.59172L14.7381 0.426758L0.0136719 9.93244V28.2916L21.5289 42.1918L43.0441 28.2916V9.93244L28.333 0.426758ZM2.70307 13.0737L20.1842 24.3785V38.2007L2.70307 26.8837V13.0737ZM22.8736 38.1873V24.3799L40.3547 13.075V26.8972L22.8736 38.1873Z" fill="#3A4705"/>
</g>
<defs>
<clipPath id="clip0_367_11209">
<rect width="43.0304" height="43.0304" fill="white" transform="translate(0.0136719 0.206055)"/>
</clipPath>
</defs>
</svg>
