<svg width="29" height="30" viewBox="0 0 29 30" fill="none" xmlns="http://www.w3.org/2000/svg">
<path d="M22.5002 29.3338H6.50022C4.82117 29.3317 3.21149 28.6637 2.02422 27.4764C0.836944 26.2892 0.169004 24.6795 0.166887 23.0004V13.5631C0.164675 12.613 0.377233 11.6748 0.788673 10.8184C1.20011 9.96205 1.79979 9.20976 2.54289 8.61778L11.3762 1.55111C12.2605 0.836861 13.3629 0.447266 14.4996 0.447266C15.6363 0.447266 16.7386 0.836861 17.6229 1.55111L26.4549 8.61778C27.1984 9.20949 27.7984 9.96169 28.2101 10.8181C28.6218 11.6745 28.8345 12.6129 28.8322 13.5631V23.0004C28.8301 24.6793 28.1624 26.2887 26.9754 27.476C25.7884 28.6632 24.1791 29.3313 22.5002 29.3338ZM3.79355 10.1791C3.28483 10.584 2.87425 11.0987 2.59256 11.6848C2.31087 12.2708 2.16535 12.9129 2.16689 13.5631V23.0004C2.1683 24.1493 2.6253 25.2507 3.43765 26.063C4.25 26.8754 5.35138 27.3324 6.50022 27.3338H22.5002C23.6491 27.3324 24.7504 26.8754 25.5628 26.063C26.3752 25.2507 26.8321 24.1493 26.8336 23.0004V13.5631C26.8351 12.9129 26.6896 12.2708 26.4079 11.6848C26.1262 11.0987 25.7156 10.584 25.2069 10.1791L16.3749 3.11244C15.8442 2.68417 15.1828 2.45059 14.5009 2.45059C13.8189 2.45059 13.1576 2.68417 12.6269 3.11244L3.79355 10.1791Z" fill="#0D0D0D"/>
<path d="M15.5002 29.334V21.0007C15.5002 20.4484 15.0525 20.0007 14.5002 20.0007C13.9479 20.0007 13.5002 20.4484 13.5002 21.0007V29.334H15.5002Z" fill="#0D0D0D"/>
</svg>
