<svg width="27" height="27" viewBox="0 0 27 27" fill="none" xmlns="http://www.w3.org/2000/svg">
<path d="M9.07726 20.0306C7.87143 20.0306 6.8958 21.0172 6.8958 22.223C6.8958 23.4288 7.87143 24.4154 9.07726 24.4154C10.2831 24.4154 11.2697 23.4288 11.2697 22.223C11.2697 21.0172 10.2831 20.0306 9.07726 20.0306ZM2.5 3.58742C2.5 4.19034 2.99329 4.68363 3.59621 4.68363H4.69242L8.63878 13.0039L7.15889 15.6786C6.35866 17.1475 7.41102 18.9344 9.07726 18.9344H21.1356C21.7385 18.9344 22.2318 18.4411 22.2318 17.8381C22.2318 17.2352 21.7385 16.7419 21.1356 16.7419H9.07726L10.2831 14.5495H18.4499C19.272 14.5495 19.9955 14.1001 20.3682 13.4204L24.2927 6.30602C24.6982 5.58252 24.1721 4.68363 23.3389 4.68363H7.11504L6.38058 3.11605C6.20519 2.73238 5.81055 2.49121 5.39399 2.49121H3.59621C2.99329 2.49121 2.5 2.98451 2.5 3.58742ZM20.0394 20.0306C18.8335 20.0306 17.8579 21.0172 17.8579 22.223C17.8579 23.4288 18.8335 24.4154 20.0394 24.4154C21.2452 24.4154 22.2318 23.4288 22.2318 22.223C22.2318 21.0172 21.2452 20.0306 20.0394 20.0306Z" fill="#373F5E"/>
</svg>
