<svg width="64" height="64" viewBox="0 0 64 64" fill="none" xmlns="http://www.w3.org/2000/svg">
<path d="M11.3802 50.2525C11.9799 54.7067 15.669 58.196 20.1584 58.4024C23.9361 58.576 27.7735 58.6667 31.9993 58.6667C36.2252 58.6667 40.0625 58.576 43.8401 58.4024C48.3298 58.196 52.0188 54.7067 52.6186 50.2525C53.01 47.3459 53.3327 44.3669 53.3327 41.3333C53.3327 38.2997 53.01 35.3208 52.6186 32.4141C52.0188 27.96 48.3298 24.4706 43.8401 24.2642C40.0625 24.0906 36.2252 24 31.9993 24C27.7735 24 23.9361 24.0906 20.1584 24.2642C15.669 24.4706 11.9799 27.96 11.3802 32.4141C10.9888 35.3208 10.666 38.2997 10.666 41.3333C10.666 44.3669 10.9888 47.3459 11.3802 50.2525Z" fill="#C9D0FF" stroke="#2743FD" stroke-width="3"/>
<path d="M38.6433 41.334H38.6673M25.334 41.334H25.3579" stroke="#141B34" stroke-width="4" stroke-linecap="round" stroke-linejoin="round"/>
<path d="M20 24.0006V17.334C20 10.7066 25.3726 5.33398 32 5.33398C38.6275 5.33398 44 10.7066 44 17.334V24.0006" stroke="#2743FD" stroke-width="3" stroke-linecap="round" stroke-linejoin="round"/>
</svg>
