<svg width="237" height="237" viewBox="0 0 237 237" fill="none" xmlns="http://www.w3.org/2000/svg">
<circle opacity="0.2" cx="118.5" cy="118.5" r="118.5" fill="#1DA1FA"/>
<circle cx="118.5" cy="118.5" r="79" fill="#1DA1FA"/>
<path d="M147.688 96.5198C146.738 96.5482 145.836 96.9453 145.174 97.6271L107.528 135.273L95.4843 123.229C95.1473 122.878 94.7436 122.598 94.2969 122.405C93.8503 122.212 93.3696 122.11 92.883 122.105C92.3964 122.1 91.9137 122.192 91.4632 122.376C91.0127 122.56 90.6034 122.832 90.2593 123.176C89.9152 123.52 89.6433 123.929 89.4593 124.38C89.2754 124.83 89.1832 125.313 89.1882 125.799C89.1931 126.286 89.2951 126.767 89.4882 127.213C89.6812 127.66 89.9615 128.064 90.3125 128.401L104.942 143.03C105.628 143.716 106.558 144.101 107.528 144.101C108.498 144.101 109.428 143.716 110.114 143.03L150.345 102.799C150.874 102.285 151.235 101.624 151.381 100.901C151.527 100.179 151.452 99.4292 151.164 98.7504C150.877 98.0717 150.392 97.4955 149.771 97.0975C149.151 96.6995 148.425 96.4981 147.688 96.5198Z" fill="white"/>
</svg>
