<svg width="27" height="27" viewBox="0 0 27 27" fill="none" xmlns="http://www.w3.org/2000/svg">
<path d="M21.6001 12.8718C22.0825 16.8511 19.9339 19.2847 19.3858 19.8766C19.1008 18.9887 18.2896 18.3529 17.303 18.3529H16.2068V15.0643C16.2068 14.4613 15.7135 13.968 15.1106 13.968H8.53331V11.7756H10.7257C11.3286 11.7756 11.8219 11.2823 11.8219 10.6794V8.487H14.0144C15.2202 8.487 16.2068 7.50041 16.2068 6.29458V3.51021C15.1654 3.18134 14.0692 3.00595 12.9182 3.00595C6.86707 3.00595 1.95605 7.91697 1.95605 13.968C1.95605 20.0191 6.86707 24.9301 12.9182 24.9301C19.1994 24.9301 24.4393 19.6026 23.8254 12.8718H21.6001ZM11.8219 22.661C7.49191 22.1239 4.14847 18.4406 4.14847 13.968C4.14847 13.2884 4.23617 12.6416 4.37868 12.0058L9.62952 17.2567V18.3529C9.62952 19.5587 10.6161 20.5453 11.8219 20.5453V22.661ZM23.8803 5.19837V4.22274C23.8803 3.12653 23.1348 2.11802 22.0605 1.94263C20.6793 1.71242 19.4954 2.77575 19.4954 4.10216V5.19837C18.8925 5.19837 18.3992 5.69166 18.3992 6.29458V9.58321C18.3992 10.1861 18.8925 10.6794 19.4954 10.6794H23.8803C24.4832 10.6794 24.9765 10.1861 24.9765 9.58321V6.29458C24.9765 5.69166 24.4832 5.19837 23.8803 5.19837ZM22.784 5.19837H20.5916V4.10216C20.5916 3.49924 21.0849 3.00595 21.6878 3.00595C22.2907 3.00595 22.784 3.49924 22.784 4.10216V5.19837Z" fill="#373F5E"/>
</svg>
