<svg width="31" height="30" viewBox="0 0 31 30" fill="none" xmlns="http://www.w3.org/2000/svg">
<path d="M8.22723 9.86328H13.1363" stroke="#333333" stroke-width="1.84091" stroke-linecap="round" stroke-linejoin="round"/>
<path d="M26.4313 11.0908H23.238C21.0473 11.0908 19.2726 12.739 19.2726 14.7726C19.2726 16.8062 21.0485 18.4545 23.2367 18.4545H26.4313C26.5344 18.4545 26.5847 18.4545 26.6277 18.452C27.2904 18.4115 27.8181 17.9218 27.8611 17.307C27.8636 17.2677 27.8636 17.2198 27.8636 17.1253V12.42C27.8636 12.3255 27.8636 12.2776 27.8611 12.2383C27.8169 11.6235 27.2904 11.1338 26.6277 11.0933C26.586 11.0908 26.5344 11.0908 26.4313 11.0908Z" stroke="#333333" stroke-width="1.84091"/>
<path d="M26.5933 11.0905C26.4976 8.79301 26.1908 7.3841 25.1979 6.39247C23.7608 4.9541 21.4462 4.9541 16.8181 4.9541H13.1363C8.50825 4.9541 6.19361 4.9541 4.75648 6.39247C3.31934 7.83083 3.31812 10.1442 3.31812 14.7723C3.31812 19.4003 3.31812 21.715 4.75648 23.1521C6.19484 24.5892 8.50825 24.5905 13.1363 24.5905H16.8181C21.4462 24.5905 23.7608 24.5905 25.1979 23.1521C26.1908 22.1605 26.4988 20.7516 26.5933 18.4541" stroke="#333333" stroke-width="1.84091"/>
<path d="M22.9435 14.7725H22.9558" stroke="#333333" stroke-width="2.45455" stroke-linecap="round" stroke-linejoin="round"/>
</svg>
