<svg width="27" height="27" viewBox="0 0 27 27" fill="none" xmlns="http://www.w3.org/2000/svg">
<path d="M21.6878 4.61621C22.5977 4.61621 23.3321 5.35067 23.3321 6.26053V20.5113C23.3321 21.4211 22.5977 22.1556 21.6878 22.1556C20.778 22.1556 20.0435 21.4211 20.0435 20.5113V6.26053C20.0435 5.35067 20.778 4.61621 21.6878 4.61621ZM5.24466 14.4821C6.15451 14.4821 6.88897 15.2166 6.88897 16.1264V20.5113C6.88897 21.4211 6.15451 22.1556 5.24466 22.1556C4.3348 22.1556 3.60034 21.4211 3.60034 20.5113V16.1264C3.60034 15.2166 4.3348 14.4821 5.24466 14.4821ZM17.303 4.61621C18.2128 4.61621 18.9473 5.35067 18.9473 6.26053C18.9473 7.17038 18.2128 7.90484 17.303 7.90484C16.3931 7.90484 15.6587 7.17038 15.6587 6.26053C15.6587 5.35067 16.3931 4.61621 17.303 4.61621ZM12.9181 5.71242C13.828 5.71242 14.5624 6.44688 14.5624 7.35674V8.45295C14.5624 9.3628 13.828 10.0973 12.9181 10.0973C12.0083 10.0973 11.2738 9.3628 11.2738 8.45295V7.35674C11.2738 6.44688 12.0083 5.71242 12.9181 5.71242ZM9.6295 11.1935C10.5394 11.1935 11.2738 11.9279 11.2738 12.8378V13.934C11.2738 14.8438 10.5394 15.5783 9.6295 15.5783C8.71964 15.5783 7.98518 14.8438 7.98518 13.934V12.8378C7.98518 11.9279 8.71964 11.1935 9.6295 11.1935Z" fill="#373F5E"/>
</svg>
